<svg xmlns="http://www.w3.org/2000/svg" xmlns:xlink="http://www.w3.org/1999/xlink" width="500" zoomAndPan="magnify" viewBox="0 0 375 374.999991" height="500" preserveAspectRatio="xMidYMid meet" version="1.0"><defs><clipPath id="13561d7347"><path d="M 72 11.730469 L 301 11.730469 L 301 348 L 72 348 Z M 72 11.730469 " clip-rule="nonzero"/></clipPath><clipPath id="2ef5d1f80f"><path d="M 232 228.695312 L 309 228.695312 L 309 333 L 232 333 Z M 232 228.695312 " clip-rule="nonzero"/></clipPath><clipPath id="9335da05de"><path d="M 193.839844 288 L 271 288 L 271 362.195312 L 193.839844 362.195312 Z M 193.839844 288 " clip-rule="nonzero"/></clipPath><clipPath id="6af4d87fb2"><path d="M 267 258 L 343.839844 258 L 343.839844 362.195312 L 267 362.195312 Z M 267 258 " clip-rule="nonzero"/></clipPath></defs><path fill="#00a33d" d="M 278.292969 172.828125 C 255.246094 140.605469 215.277344 136.960938 215.277344 136.960938 L 213.382812 94.960938 C 225.488281 105.460938 224.90625 126.019531 224.90625 126.019531 L 227.242188 128.9375 L 273.839844 119.347656 L 284.859375 103.859375 C 285.589844 81.839844 277.273438 61.570312 256.558594 45.238281 C 235.84375 28.910156 212.503906 28.617188 212.503906 28.617188 L 212.945312 13.597656 L 177.496094 14.472656 L 163.929688 23.074219 L 160.863281 37.367188 C 145.109375 37.222656 114.328125 51.074219 103.386719 65.800781 C 92.445312 80.527344 79.167969 105.753906 91.421875 144.101562 C 103.679688 182.453125 157.652344 197.179688 157.652344 197.179688 L 161.882812 251.710938 C 140.582031 241.941406 139.652344 215.4375 139.652344 215.4375 L 103.097656 217.726562 L 73.480469 233.632812 C 70.707031 241.21875 77.710938 263.527344 98.863281 293.855469 C 120.015625 324.183594 164.070312 325.207031 164.070312 325.207031 L 164.363281 344.015625 L 197.332031 344.746094 L 216.148438 330.308594 L 216.292969 325.207031 C 216.292969 325.207031 258.597656 307.707031 282.085938 275.628906 C 305.574219 243.550781 301.34375 205.054688 278.292969 172.828125 Z M 160.75 126.777344 C 141.5 115.664062 161.945312 87.46875 161.945312 87.46875 Z M 198.878906 255.707031 L 197.683594 213.289062 C 197.683594 213.289062 225.058594 221.054688 225.179688 232.886719 C 225.179688 232.886719 225.894531 250.925781 198.878906 255.707031 Z M 198.878906 255.707031 " fill-opacity="1" fill-rule="nonzero"/><path fill="#000000" d="M 163.699219 85.792969 C 163.53125 84.269531 162.015625 83.828125 161.027344 84.394531 C 147.582031 85.175781 131.4375 94.691406 129.550781 109.054688 C 127.253906 126.472656 142.136719 137.730469 156.679688 143.402344 C 159.167969 144.371094 160.238281 140.367188 157.78125 139.40625 C 152.363281 137.292969 146.941406 134.375 142.589844 130.546875 C 144.09375 129.875 145.46875 128.757812 146.839844 127.902344 C 148.988281 126.578125 151.121094 125.261719 153.1875 123.824219 C 153.589844 124.3125 154.0625 124.816406 154.59375 125.292969 C 153.09375 126.207031 151.664062 127.203125 150.265625 128.253906 C 148.976562 129.210938 147.03125 130.242188 146.355469 131.742188 C 146.15625 132.191406 146.457031 132.746094 147.003906 132.625 C 148.625 132.269531 149.992188 130.703125 151.285156 129.710938 C 152.699219 128.632812 154.15625 127.617188 155.671875 126.6875 C 155.816406 126.597656 155.90625 126.484375 155.96875 126.367188 C 157.0625 127.078125 158.25 127.53125 159.359375 127.410156 C 159.539062 133.230469 159.902344 138.984375 160.601562 144.539062 C 160.664062 145.105469 161.539062 145.34375 161.679688 144.683594 C 165.511719 126.273438 165.742188 104.445312 163.699219 85.792969 Z M 135.71875 102.898438 C 143.417969 99.132812 151.089844 94.3125 158.375 89.839844 C 157.394531 90.964844 156.539062 92.273438 155.765625 93.652344 C 148.402344 97.722656 139.917969 102.003906 133.851562 107.875 C 134.234375 106.054688 134.871094 104.394531 135.71875 102.898438 Z M 136.054688 122.480469 C 135.492188 121.414062 135.007812 120.300781 134.613281 119.140625 C 140.265625 117.25 145.523438 113.296875 150.722656 110.136719 C 150.664062 110.550781 150.601562 110.976562 150.558594 111.371094 C 150.507812 111.878906 150.46875 112.394531 150.4375 112.917969 C 145.53125 115.59375 140.019531 118.394531 136.105469 122.375 C 136.074219 122.40625 136.074219 122.445312 136.054688 122.480469 Z M 138.683594 126.480469 C 137.804688 125.375 137.007812 124.207031 136.324219 122.976562 C 136.382812 122.984375 136.445312 122.992188 136.515625 122.964844 C 141.433594 120.984375 145.851562 117.394531 150.40625 114.574219 C 150.421875 115.652344 150.507812 116.746094 150.6875 117.816406 C 148.644531 119.21875 146.578125 120.574219 144.5 121.921875 C 142.574219 123.175781 140 124.355469 138.730469 126.3125 C 138.691406 126.367188 138.691406 126.425781 138.683594 126.480469 Z M 146.554688 126.003906 C 144.84375 127.007812 142.734375 127.925781 141.371094 129.421875 C 140.550781 128.621094 139.757812 127.796875 139.035156 126.921875 C 139.105469 126.941406 139.175781 126.953125 139.25 126.9375 C 141.238281 126.441406 142.964844 124.820312 144.625 123.679688 C 146.75 122.214844 148.886719 120.761719 150.984375 119.257812 C 151.277344 120.398438 151.703125 121.488281 152.273438 122.480469 C 150.398438 123.71875 148.484375 124.875 146.554688 126.003906 Z M 151.015625 108.125 C 145.433594 111.085938 139.175781 114.039062 134.292969 117.992188 C 134.003906 116.949219 133.765625 115.882812 133.625 114.761719 C 133.652344 114.761719 133.675781 114.777344 133.710938 114.761719 C 137.246094 113.492188 140.414062 110.519531 143.457031 108.339844 C 146.386719 106.242188 149.367188 104.21875 152.335938 102.179688 C 151.761719 104.21875 151.339844 106.226562 151.015625 108.125 Z M 152.75 100.804688 C 149.296875 102.746094 145.910156 104.769531 142.578125 106.90625 C 139.542969 108.839844 135.757812 110.898438 133.496094 113.765625 C 133.425781 112.847656 133.394531 111.914062 133.441406 110.953125 C 133.472656 110.078125 133.582031 109.253906 133.722656 108.449219 C 133.835938 108.660156 134.058594 108.8125 134.296875 108.707031 C 141.5 105.371094 148.257812 100.042969 154.828125 95.417969 C 154.011719 97.140625 153.324219 98.964844 152.75 100.804688 Z M 159.230469 122.851562 C 158.375 122.453125 157.457031 122.054688 156.609375 121.164062 C 153.453125 117.863281 154.070312 111.53125 154.4375 107.34375 C 154.933594 101.6875 156.886719 96.324219 159.921875 91.617188 C 159.492188 101.800781 159.078125 112.398438 159.230469 122.851562 Z M 160.066406 88.136719 C 159.855469 88.316406 159.65625 88.519531 159.453125 88.710938 C 159.359375 88.511719 159.148438 88.363281 158.902344 88.453125 C 152.132812 90.859375 145.113281 94.65625 138.832031 98.839844 C 144.289062 93.386719 152.910156 90.492188 160.066406 87.996094 C 160.066406 88.042969 160.066406 88.089844 160.066406 88.136719 Z M 160.066406 88.136719 " fill-opacity="1" fill-rule="nonzero"/><path fill="#000000" d="M 233.546875 243.503906 C 231.550781 228.484375 214.78125 210.082031 198.507812 211.980469 C 198.433594 211.59375 198.390625 211.195312 198.3125 210.808594 C 198.078125 209.695312 196.308594 209.695312 196.078125 210.808594 C 193.507812 222.980469 195.304688 236.667969 195.539062 249.039062 C 195.6875 256.953125 193.25 270.253906 197.136719 277.398438 C 197.179688 277.484375 197.253906 277.511719 197.3125 277.570312 C 197.855469 278.449219 198.847656 279.070312 200.289062 278.828125 C 219.152344 275.699219 236.390625 264.941406 233.546875 243.503906 Z M 199.074219 249.039062 C 198.988281 237.648438 200.546875 225.339844 198.839844 213.949219 C 205.070312 217.566406 211.886719 219.257812 217.71875 224.027344 C 220.578125 226.359375 222.925781 229.167969 224.800781 232.273438 C 224.609375 232.351562 224.433594 232.5 224.390625 232.703125 C 223.136719 238.351562 221.40625 242.996094 216.964844 246.9375 C 211.878906 251.453125 205.332031 252.417969 199.425781 255.136719 C 199.234375 252.945312 199.085938 250.867188 199.074219 249.039062 Z M 199.871094 273.296875 C 200.644531 268.300781 200.058594 262.183594 199.5625 256.652344 C 200.046875 256.707031 200.554688 256.722656 201.054688 256.726562 C 200.9375 256.90625 200.890625 257.132812 201.011719 257.390625 C 201.417969 258.230469 201.8125 259.066406 202.234375 259.902344 C 202.839844 261.109375 203.203125 262.445312 204.027344 263.53125 C 204.328125 263.914062 204.917969 263.683594 204.980469 263.242188 C 205.28125 260.953125 203.710938 258.382812 202.28125 256.695312 C 203.023438 256.652344 203.773438 256.566406 204.539062 256.4375 C 204.78125 257.949219 205.273438 259.453125 205.757812 260.867188 C 206.433594 262.820312 207.238281 265.207031 208.984375 266.4375 C 209.421875 266.742188 210.125 266.546875 210.074219 265.921875 C 209.949219 264.050781 208.871094 262.3125 208.101562 260.617188 C 207.449219 259.148438 206.957031 257.566406 206.292969 256.085938 C 207.160156 255.875 208.03125 255.625 208.902344 255.316406 C 209.3125 257.121094 210.230469 258.882812 210.9375 260.535156 C 211.804688 262.546875 212.824219 264.730469 214.765625 265.859375 C 215.027344 266.011719 215.445312 265.777344 215.457031 265.476562 C 215.503906 263.324219 214.359375 261.304688 213.398438 259.425781 C 212.578125 257.835938 211.921875 256.046875 210.929688 254.527344 C 211.589844 254.238281 212.246094 253.933594 212.894531 253.597656 C 213.066406 253.957031 213.367188 254.308594 213.582031 254.636719 C 214.273438 255.703125 214.976562 256.753906 215.71875 257.792969 C 217.25 259.949219 218.582031 262.691406 220.746094 264.253906 C 221.199219 264.582031 221.691406 264.0625 221.628906 263.609375 C 221.308594 261.433594 219.632812 259.585938 218.414062 257.835938 C 217.179688 256.0625 215.910156 254.34375 214.515625 252.699219 C 215.378906 252.183594 216.21875 251.628906 217.023438 251.035156 C 217.816406 252.8125 218.980469 254.460938 220.125 255.992188 C 221.503906 257.824219 223.136719 260.445312 225.363281 261.347656 C 219.742188 268.539062 209.632812 272.707031 199.871094 273.296875 Z M 226.324219 260.03125 C 225.621094 258.449219 224.15625 257.144531 223.089844 255.832031 C 221.527344 253.910156 220.191406 251.707031 218.570312 249.8125 C 219.242188 249.242188 219.886719 248.644531 220.492188 248.027344 C 221.234375 249.058594 222.070312 250.042969 222.875 251.019531 C 224.179688 252.601562 225.523438 255.035156 227.492188 255.832031 C 227.792969 255.957031 228.140625 255.777344 228.132812 255.429688 C 228.113281 253.628906 226.722656 252.351562 225.628906 251.046875 C 224.386719 249.566406 223.066406 248.097656 221.65625 246.75 C 222.367188 245.914062 223.003906 245.039062 223.558594 244.136719 C 224.183594 244.890625 224.800781 245.65625 225.425781 246.40625 C 226.175781 247.304688 226.949219 248.519531 228.175781 248.742188 C 228.476562 248.800781 228.792969 248.507812 228.742188 248.195312 C 228.554688 247.019531 227.480469 246.15625 226.726562 245.304688 C 225.957031 244.425781 225.15625 243.59375 224.316406 242.785156 C 225.71875 240.03125 226.34375 237.050781 225.769531 234.007812 C 227.117188 236.542969 228.175781 239.230469 228.925781 242.007812 C 230.863281 249.144531 229.570312 255.199219 226.324219 260.03125 Z M 226.324219 260.03125 " fill-opacity="1" fill-rule="nonzero"/><g clip-path="url(#13561d7347)"><path fill="#000000" d="M 299.890625 224.355469 C 299.542969 214.957031 297.605469 205.394531 293.929688 195.847656 C 285.253906 173.359375 266.140625 152.171875 243.113281 142.136719 C 243.195312 141.757812 242.871094 141.3125 242.441406 141.53125 C 242.339844 141.585938 242.234375 141.65625 242.140625 141.710938 C 234.207031 138.382812 225.832031 136.371094 217.265625 136.09375 C 217.070312 136.085938 216.914062 136.136719 216.773438 136.207031 C 216.484375 136.015625 216.121094 135.941406 215.710938 136.09375 C 216.464844 131.445312 216.039062 126.496094 215.792969 121.773438 C 215.875 121.699219 215.960938 121.636719 216.039062 121.5625 C 216.542969 121.136719 216.226562 120.371094 215.710938 120.207031 C 215.710938 120.179688 215.710938 120.152344 215.703125 120.117188 C 215.660156 118.910156 215.609375 117.691406 215.566406 116.476562 C 215.792969 116.167969 215.734375 115.765625 215.527344 115.488281 C 215.464844 113.847656 215.398438 112.210938 215.328125 110.566406 C 215.398438 110.492188 215.472656 110.425781 215.539062 110.347656 C 215.890625 109.980469 215.648438 109.484375 215.273438 109.277344 C 215.136719 106.007812 214.988281 102.734375 214.78125 99.476562 C 220.65625 106.769531 223.59375 115.996094 223.273438 127.308594 C 223.230469 128.859375 224.585938 129.503906 225.789062 129.296875 C 225.945312 129.792969 226.320312 130.222656 226.972656 130.210938 C 241.800781 129.964844 259.992188 126.113281 273.550781 120.050781 C 273.824219 119.921875 273.90625 119.617188 273.839844 119.347656 C 274.941406 120.019531 276.636719 119.585938 276.605469 117.90625 C 276.601562 117.554688 276.570312 117.210938 276.5625 116.855469 C 278.601562 114.363281 280.585938 111.777344 282.523438 109.21875 C 284.695312 106.34375 287.5 103.523438 288.835938 100.152344 C 289.167969 99.308594 287.996094 98.925781 287.449219 99.371094 C 287.140625 99.628906 286.832031 99.902344 286.546875 100.1875 C 289.757812 82.875 278.769531 63.519531 267.542969 51.53125 C 254.8125 37.9375 232.75 25.40625 213.363281 27.785156 C 213.609375 23.074219 214.089844 18.15625 213.476562 13.503906 C 213.457031 13.335938 213.386719 13.214844 213.296875 13.121094 C 213.363281 13.082031 213.429688 13.042969 213.492188 13.003906 C 214.058594 12.6875 213.722656 11.769531 213.101562 12.050781 C 212.347656 12.390625 211.605469 12.734375 210.859375 13.082031 C 210.789062 13.03125 210.734375 12.96875 210.636719 12.949219 C 205.984375 12.238281 200.878906 12.933594 196.167969 13 C 190.238281 13.082031 184.207031 13.109375 178.335938 14.035156 C 178.25 14.050781 178.179688 14.078125 178.117188 14.113281 C 178.109375 14.085938 178.117188 14.050781 178.109375 14.023438 C 177.445312 11.964844 171.9375 16.191406 170.953125 16.777344 C 169.417969 17.675781 167.855469 18.519531 166.316406 19.410156 C 165.726562 19.75 165.144531 20.09375 164.542969 20.421875 C 164.3125 20.546875 164.082031 20.664062 163.855469 20.792969 C 163.722656 20.875 163.625 20.960938 163.574219 21.035156 L 163.460938 21.089844 C 162.867188 21.242188 162.746094 21.832031 162.976562 22.230469 C 162.9375 22.242188 162.902344 22.25 162.867188 22.261719 C 162.859375 22.246094 162.859375 22.230469 162.851562 22.222656 C 162.796875 22.15625 162.683594 22.152344 162.628906 22.191406 C 162.507812 22.273438 162.441406 22.394531 162.332031 22.476562 C 161.5625 22.753906 160.753906 22.984375 160.050781 23.390625 C 159.617188 23.652344 159.691406 24.375 160.199219 24.5 C 160.347656 24.535156 160.507812 24.53125 160.65625 24.566406 C 159.933594 26.050781 159.6875 27.785156 159.484375 29.539062 C 159.289062 31.273438 158.894531 33.890625 159.035156 36.253906 C 117.644531 40.75 85.984375 70.496094 83.1875 112.722656 C 80.097656 159.738281 116.507812 188.203125 157.171875 198.832031 C 156.371094 210.214844 159.097656 222.613281 159.378906 234.027344 C 159.496094 238.867188 159.460938 243.730469 159.421875 248.597656 C 155.265625 245.832031 151.765625 243.382812 148.574219 239.203125 C 148.429688 238.636719 148.105469 238.144531 147.585938 237.835938 C 143.699219 232.132812 142.121094 225.816406 141.246094 219.199219 C 141.40625 219.023438 141.574219 218.847656 141.730469 218.671875 C 142.042969 218.320312 141.589844 217.667969 141.160156 217.902344 C 141.128906 217.917969 141.105469 217.929688 141.089844 217.945312 C 140.988281 217.167969 140.898438 216.398438 140.816406 215.613281 C 140.757812 215.011719 139.792969 214.714844 139.652344 215.4375 C 139.449219 216.625 139.367188 217.816406 139.34375 219.003906 C 137.015625 220.527344 134.929688 222.375 132.742188 224.113281 C 130.761719 225.679688 128.742188 227.199219 126.757812 228.761719 C 126.53125 227.75 126.300781 226.734375 126.082031 225.710938 C 128.300781 223.835938 130.636719 222.148438 133.042969 220.535156 C 134.878906 219.300781 137.519531 218.167969 138.953125 216.449219 C 139.644531 215.613281 138.734375 213.621094 137.621094 214.402344 C 137.433594 214.53125 137.246094 214.652344 137.054688 214.78125 C 133.042969 212.925781 123.808594 215.242188 120.164062 215.558594 C 115.140625 215.984375 107.652344 215.324219 103.097656 217.726562 C 103.035156 217.757812 103.015625 217.84375 103.078125 217.890625 C 106.328125 220.578125 114.914062 218.519531 118.742188 218.269531 C 123.003906 217.992188 127.269531 217.734375 131.535156 217.601562 C 131.960938 217.585938 132.390625 217.605469 132.8125 217.628906 C 130.195312 219.378906 127.613281 221.195312 125.390625 223.390625 C 124.640625 222.554688 122.976562 223.148438 122.863281 224.433594 C 122.828125 224.769531 122.835938 225.101562 122.808594 225.441406 C 122.613281 225.164062 122.34375 224.933594 121.964844 224.898438 C 114.761719 224.210938 106.898438 227.113281 99.785156 228.382812 C 93.554688 229.496094 87.277344 230.4375 81.011719 231.359375 C 84.097656 229.894531 87.179688 228.433594 90.269531 226.976562 C 94.324219 225.058594 99.234375 223.136719 102.34375 219.789062 C 103.296875 218.761719 102.097656 217.199219 100.855469 217.867188 C 96.796875 220.039062 92.972656 222.511719 88.789062 224.511719 C 83.699219 226.953125 78.359375 229.160156 73.722656 232.417969 C 73.703125 232.425781 73.699219 232.445312 73.683594 232.460938 C 72.175781 232.804688 72.566406 235.394531 74.164062 235.292969 C 82.019531 234.796875 89.730469 233.796875 97.515625 232.597656 C 105.464844 231.375 115.5 231.03125 122.527344 226.941406 C 122.640625 226.871094 122.675781 226.769531 122.75 226.679688 C 121.601562 250.769531 138.425781 272.015625 160.515625 279.984375 C 162.410156 280.664062 163.554688 278.945312 163.34375 277.375 C 163.417969 277.207031 163.550781 277.117188 163.582031 276.910156 C 165.300781 262.777344 164.949219 248.238281 164.578125 234.027344 C 164.304688 223.523438 165.066406 208.804688 159.855469 198.894531 C 161.28125 198.011719 161.457031 195.464844 159.378906 194.902344 C 120.207031 184.304688 89.5625 161.433594 87.773438 117.652344 C 86.023438 74.644531 120.5 46.132812 159.4375 38.613281 C 159.707031 39.476562 160.128906 40.214844 160.769531 40.742188 C 161.648438 41.464844 162.675781 41.316406 163.359375 40.410156 C 165.082031 38.082031 163.957031 33.503906 164.113281 30.671875 C 164.222656 28.757812 164.386719 26.820312 164.03125 25.015625 C 167.847656 25.179688 171.890625 24.515625 175.597656 24.539062 C 181.191406 24.578125 186.964844 25.761719 192.492188 25.375 C 192.820312 25.355469 193.0625 25.203125 193.277344 25.046875 C 193.0625 26.015625 192.988281 27.007812 192.921875 27.957031 C 192.617188 28.257812 192.289062 28.542969 192 28.851562 C 191.703125 29.164062 192.046875 29.664062 192.441406 29.46875 C 192.566406 29.402344 192.695312 29.328125 192.820312 29.261719 C 192.660156 31.636719 192.394531 34.15625 192.726562 36.5 C 192.785156 36.914062 192.992188 37.214844 193.25 37.46875 C 191.777344 37.339844 191.453125 39.804688 192.921875 40.089844 C 236.511719 48.636719 268.621094 71.34375 272.949219 117.90625 C 272.980469 118.285156 273.121094 118.574219 273.296875 118.832031 C 273.261719 118.824219 273.242188 118.796875 273.207031 118.804688 C 266.605469 119.519531 260.121094 121.308594 253.59375 122.523438 C 244.929688 124.128906 236.023438 124.964844 227.523438 127.351562 C 227.523438 127.335938 227.539062 127.324219 227.539062 127.308594 C 227.636719 113.597656 222.910156 100.0625 212.949219 92.207031 C 212.925781 91.742188 212.453125 91.328125 211.960938 91.484375 C 211.667969 91.269531 211.394531 91.042969 211.085938 90.835938 C 211.289062 90.417969 210.957031 89.816406 210.355469 89.941406 C 210.195312 89.976562 210.03125 90.023438 209.863281 90.058594 C 206.199219 87.828125 201.945312 86.285156 197.089844 85.648438 C 197.027344 85.324219 196.980469 84.980469 196.917969 84.65625 C 196.601562 83.035156 194.460938 83.640625 194.28125 85.007812 C 191.488281 107.003906 193.382812 131.847656 195.179688 153.9375 C 195.261719 154.855469 195.773438 155.429688 196.394531 155.699219 C 196.644531 155.90625 196.957031 156.078125 197.367188 156.171875 C 236.117188 164.949219 270.308594 189.777344 282.292969 228.820312 C 299.1875 283.859375 242.648438 316.933594 197.011719 323.511719 C 195.035156 323.796875 194.265625 325.628906 194.4375 327.375 C 193.980469 329.5625 193.929688 331.644531 193.894531 334.003906 C 193.839844 337.039062 193.628906 340.183594 193.875 343.226562 C 190.332031 340.859375 185.054688 341.390625 180.925781 341.121094 C 176.621094 340.84375 171.257812 340.324219 166.5625 341.128906 C 166.921875 340.042969 166.773438 338.621094 166.789062 337.585938 C 166.832031 335.574219 166.757812 333.589844 166.660156 331.582031 C 166.546875 329.175781 167.09375 325.46875 165.445312 323.523438 C 164.894531 322.878906 163.667969 322.878906 163.125 323.523438 C 163.113281 323.53125 163.113281 323.539062 163.113281 323.546875 C 162.746094 322.871094 162.105469 322.332031 161.148438 322.25 C 135.90625 320.175781 114.566406 310.585938 98.925781 290.3125 C 92.136719 281.515625 87.269531 271.15625 83.117188 260.921875 C 79.675781 252.390625 78.390625 242.667969 72.816406 235.277344 C 72.707031 235.128906 72.398438 235.09375 72.359375 235.332031 C 69.558594 255.15625 85.410156 281.761719 97.214844 296.820312 C 112.804688 316.746094 136.65625 325.289062 161.148438 327.125 C 161.460938 327.148438 161.738281 327.089844 161.996094 327.015625 C 161.863281 328.597656 161.960938 330.273438 161.90625 331.582031 C 161.804688 333.589844 161.730469 335.574219 161.777344 337.585938 C 161.804688 338.867188 161.503906 340.785156 162.332031 341.855469 C 162.453125 342.019531 162.605469 342.09375 162.738281 342.21875 C 162.320312 342.390625 161.898438 342.539062 161.496094 342.75 C 160.789062 343.128906 161.0625 344.058594 161.703125 344.308594 C 166.746094 346.261719 173.1875 345.351562 178.585938 345.769531 C 183.707031 346.171875 190.011719 348.5625 194.734375 346.210938 C 194.785156 346.183594 194.773438 346.113281 194.816406 346.082031 C 196.152344 347.25 198.492188 346.683594 198.875 344.402344 C 204.3125 341.371094 208.824219 336.496094 214.144531 333.214844 C 215.953125 332.101562 214.261719 329.277344 212.453125 330.390625 C 207.933594 333.171875 203.070312 336.542969 199.085938 340.378906 C 199.074219 339.21875 199.035156 338.054688 198.996094 336.898438 C 199.023438 336.957031 199.039062 337.019531 199.085938 337.066406 C 199.214844 337.183594 199.191406 337.710938 199.421875 337.933594 C 199.460938 337.96875 199.535156 337.921875 199.515625 337.867188 C 198.78125 336.253906 208.1875 330.972656 214.335938 327.484375 C 214.445312 327.457031 214.554688 327.433594 214.660156 327.410156 C 214.65625 327.601562 214.65625 327.792969 214.65625 327.984375 C 214.628906 329.816406 217.503906 329.875 217.484375 328.050781 C 217.480469 327.585938 217.472656 327.128906 217.449219 326.675781 C 242.445312 319.703125 264.894531 305.820312 277.824219 285.214844 C 292.484375 267.792969 300.398438 247.199219 299.941406 225.683594 C 299.980469 225.648438 300.015625 225.609375 300.054688 225.574219 C 300.496094 225.171875 300.285156 224.539062 299.890625 224.355469 Z M 127.117188 230.304688 C 131.59375 228.328125 135.863281 224.785156 139.382812 221.183594 C 139.449219 222.167969 139.582031 223.148438 139.75 224.128906 C 137.652344 225.542969 135.597656 227.011719 133.652344 228.644531 C 131.828125 230.171875 129.34375 231.894531 128.046875 234.003906 C 127.71875 232.785156 127.414062 231.550781 127.117188 230.304688 Z M 156.03125 270.121094 C 157.367188 268.988281 158.144531 267.421875 159.167969 266.027344 C 159.289062 265.855469 159.429688 265.699219 159.554688 265.535156 C 159.664062 268.605469 159.835938 271.671875 160.128906 274.722656 C 141.476562 267.230469 133.273438 252.785156 128.414062 235.292969 C 130.574219 234.265625 132.328125 232.035156 134.078125 230.433594 C 136.003906 228.660156 137.960938 226.898438 139.933594 225.179688 C 140.175781 226.371094 140.5 227.546875 140.859375 228.714844 C 140.683594 228.683594 140.492188 228.71875 140.332031 228.859375 C 138.992188 230.0625 137.597656 231.195312 136.191406 232.304688 C 135 233.238281 133.507812 234.042969 132.664062 235.316406 C 132.496094 235.570312 132.734375 235.972656 133.039062 235.941406 C 134.753906 235.769531 136.277344 234.433594 137.597656 233.410156 C 138.933594 232.382812 140.109375 231.203125 141.257812 229.972656 C 141.929688 231.976562 142.722656 233.933594 143.582031 235.808594 C 143.917969 236.53125 144.320312 237.316406 144.746094 238.113281 C 143.769531 238.125 142.816406 238.152344 141.832031 238.347656 C 141.285156 238.453125 141.238281 239.230469 141.820312 239.332031 C 142.570312 239.46875 143.296875 239.523438 144.023438 239.550781 C 143.972656 239.847656 143.953125 240.144531 144 240.441406 C 142.914062 241.191406 142.058594 242.285156 142.363281 243.488281 C 142.464844 243.894531 143.039062 244.074219 143.371094 243.828125 C 144 243.351562 144.371094 242.574219 144.921875 241.984375 C 145.273438 242.226562 145.714844 242.378906 146.253906 242.378906 C 146.625 242.378906 146.941406 242.308594 147.222656 242.191406 C 147.417969 242.476562 147.582031 242.765625 147.789062 243.046875 C 145.804688 244.519531 143.839844 246.363281 142.4375 248.367188 C 141.980469 249.015625 142.753906 249.847656 143.417969 249.371094 C 145.367188 247.972656 147.164062 246.101562 148.632812 244.160156 C 148.902344 244.515625 149.152344 244.878906 149.4375 245.222656 C 148.742188 246.070312 148.097656 246.972656 147.4375 247.839844 C 145.988281 249.742188 144.460938 251.53125 142.914062 253.355469 C 142.417969 253.9375 143.242188 254.839844 143.882812 254.46875 C 146.648438 252.878906 149.214844 249.777344 150.785156 246.757812 C 151.304688 247.308594 151.835938 247.847656 152.386719 248.34375 C 152.132812 248.742188 151.84375 249.117188 151.675781 249.347656 C 150.546875 250.863281 149.226562 252.261719 147.957031 253.664062 C 145.890625 255.960938 143.644531 258.097656 141.90625 260.671875 C 141.515625 261.261719 142.394531 261.886719 142.875 261.40625 C 146.238281 258.066406 149.632812 254.78125 152.449219 250.933594 C 152.785156 250.464844 153.171875 249.871094 153.472656 249.261719 C 154.515625 250.078125 155.605469 250.75 156.734375 251.273438 C 152.730469 255.183594 149.886719 260.578125 146.890625 265.101562 C 146.507812 265.679688 147.390625 266.335938 147.851562 265.835938 C 151.78125 261.554688 154.6875 256.472656 158.171875 251.832031 C 158.578125 251.953125 158.984375 252.082031 159.398438 252.15625 C 159.394531 253.164062 159.398438 254.175781 159.398438 255.1875 C 158.476562 256.449219 157.566406 257.730469 156.679688 259.023438 C 154.980469 261.511719 152.722656 264.027344 151.933594 266.980469 C 151.832031 267.382812 152.371094 267.699219 152.683594 267.453125 C 154.792969 265.8125 156.054688 263.304688 157.492188 261.089844 C 158.136719 260.097656 158.769531 259.09375 159.398438 258.097656 C 159.40625 259.726562 159.4375 261.359375 159.476562 262.988281 C 158.910156 263.605469 158.351562 264.21875 157.828125 264.878906 C 156.648438 266.371094 155.476562 267.894531 155.304688 269.832031 C 155.269531 270.242188 155.78125 270.332031 156.03125 270.121094 Z M 283.09375 99.039062 C 282.40625 99.601562 281.71875 100.152344 281.035156 100.726562 C 279.410156 102.105469 277.65625 103.40625 276.453125 105.183594 C 276.089844 105.722656 276.75 106.207031 277.242188 106.011719 C 278.792969 105.402344 279.96875 104.386719 281.238281 103.328125 C 282.003906 102.699219 282.71875 102.03125 283.421875 101.359375 C 283.535156 102.050781 283.652344 102.746094 283.785156 103.441406 C 282.699219 104.921875 281.691406 106.472656 280.644531 107.875 C 279.179688 109.832031 277.738281 111.886719 276.429688 114.011719 C 276.179688 109.933594 275.628906 106 274.828125 102.222656 C 276.273438 101.484375 277.585938 100.207031 278.773438 99.210938 C 280.128906 98.074219 281.421875 96.867188 282.699219 95.636719 C 282.816406 96.769531 282.945312 97.90625 283.09375 99.039062 Z M 282.523438 93.964844 C 281.171875 95.21875 279.789062 96.4375 278.363281 97.601562 C 277.15625 98.578125 275.640625 99.460938 274.433594 100.550781 C 274.175781 99.449219 273.894531 98.371094 273.59375 97.296875 C 276.675781 95.265625 279.464844 92.691406 282.109375 90.09375 C 282.25 91.378906 282.390625 92.675781 282.523438 93.964844 Z M 211.960938 13.894531 C 211.867188 14.546875 211.796875 15.214844 211.714844 15.867188 C 206.832031 18.246094 201.628906 20.972656 197.121094 24.351562 C 197.058594 23.796875 196.957031 23.253906 196.796875 22.730469 C 201.96875 20.429688 206.925781 16.867188 211.960938 13.894531 Z M 197.136719 33.175781 C 197.136719 32.667969 197.136719 32.160156 197.128906 31.652344 C 202.347656 28.996094 207.535156 24.914062 211.277344 20.546875 C 211.199219 21.714844 211.144531 22.894531 211.109375 24.0625 C 206.382812 26.804688 201.472656 29.746094 197.136719 33.175781 Z M 211.082031 25.144531 C 211.070312 26.125 211.050781 27.101562 211.070312 28.0625 C 209.773438 27.921875 208.859375 28.675781 207.800781 29.339844 C 206.316406 30.28125 204.816406 31.195312 203.308594 32.101562 C 201.902344 32.957031 200.492188 33.796875 199.074219 34.636719 C 198.4375 35.011719 197.4375 35.378906 197.007812 36.042969 C 197.03125 35.832031 197.027344 35.613281 197.046875 35.402344 C 202.046875 32.589844 206.96875 29.085938 211.082031 25.144531 Z M 203.554688 25.101562 C 201.433594 26.667969 199.226562 28.140625 197.128906 29.746094 C 197.128906 29.683594 197.121094 29.621094 197.128906 29.566406 C 197.140625 28.652344 197.199219 27.699219 197.210938 26.746094 C 202.195312 23.617188 206.914062 19.839844 211.644531 16.476562 C 211.53125 17.476562 211.433594 18.476562 211.347656 19.484375 C 208.644531 21.207031 206.140625 23.199219 203.554688 25.101562 Z M 194.933594 21.65625 C 194.414062 22.175781 194.050781 22.820312 193.769531 23.511719 C 193.644531 23.097656 193.398438 22.707031 192.886719 22.507812 C 187.644531 20.46875 181.148438 20.8125 175.597656 20.953125 C 173.050781 21.015625 170.183594 21.019531 167.390625 21.34375 C 168.953125 20.558594 170.476562 19.574219 171.855469 18.792969 C 172.761719 18.277344 176.6875 16.621094 177.832031 15.070312 C 177.949219 15.289062 178.179688 15.453125 178.503906 15.441406 C 184.359375 15.214844 190.191406 14.980469 196.050781 14.933594 C 199.578125 14.90625 203.449219 15.265625 207.09375 14.925781 C 205.679688 15.652344 204.273438 16.402344 202.886719 17.222656 C 200.53125 18.609375 197.894531 19.894531 196.582031 22.15625 C 196.546875 22.054688 196.519531 21.953125 196.46875 21.859375 C 196.210938 21.273438 195.355469 21.253906 194.933594 21.65625 Z M 195.898438 37.828125 C 196.308594 37.636719 196.660156 37.34375 196.835938 36.921875 C 196.90625 37.164062 197.082031 37.355469 197.347656 37.453125 C 198.082031 37.71875 198.703125 37.246094 199.332031 36.894531 C 200.871094 36.023438 202.402344 35.132812 203.929688 34.234375 C 205.503906 33.320312 207.058594 32.386719 208.609375 31.449219 C 209.625 30.835938 210.746094 30.324219 211.316406 29.3125 C 211.722656 29.761719 212.542969 29.773438 212.996094 29.371094 C 220.886719 30.898438 228.546875 31.902344 236.125 34.929688 C 245.539062 38.675781 253.957031 44.296875 261.476562 51.019531 C 265.386719 54.515625 268.8125 58.5 271.777344 62.816406 C 271.726562 62.835938 271.683594 62.851562 271.628906 62.886719 C 270.195312 63.953125 268.710938 64.964844 267.207031 65.949219 C 265.8125 66.867188 264.183594 67.832031 263.351562 69.324219 C 263.195312 69.59375 263.421875 69.988281 263.757812 69.898438 C 265.40625 69.433594 266.761719 68.21875 268.121094 67.230469 C 269.558594 66.191406 270.96875 65.121094 272.332031 63.984375 C 272.378906 63.945312 272.414062 63.890625 272.445312 63.839844 C 273.234375 65.035156 274.019531 66.238281 274.742188 67.476562 C 273.15625 68.421875 271.542969 69.289062 269.945312 70.203125 C 268.210938 71.199219 266.316406 72.074219 265.054688 73.664062 C 264.824219 73.953125 265.011719 74.453125 265.433594 74.339844 C 267.355469 73.820312 268.992188 72.613281 270.695312 71.609375 C 272.289062 70.65625 273.839844 69.640625 275.355469 68.5625 C 275.730469 69.230469 276.109375 69.90625 276.457031 70.585938 C 274.703125 72.394531 272.863281 74.085938 270.820312 75.585938 C 269.152344 76.804688 267.203125 77.769531 265.699219 79.171875 C 251.597656 55.828125 225.304688 41.582031 195.898438 37.828125 Z M 266.078125 79.808594 C 270.292969 78.898438 274.085938 74.808594 276.890625 71.433594 C 277.351562 72.347656 277.804688 73.265625 278.230469 74.195312 C 276.832031 75.46875 275.402344 76.714844 273.960938 77.945312 C 272.070312 79.550781 269.765625 81.042969 268.289062 83.054688 C 268.035156 83.394531 268.367188 84.042969 268.820312 83.804688 C 271.085938 82.628906 272.988281 80.535156 274.835938 78.808594 C 276.132812 77.609375 277.375 76.347656 278.609375 75.089844 C 279.148438 76.355469 279.617188 77.625 280.003906 78.894531 C 278.933594 79.8125 277.867188 80.730469 276.777344 81.625 C 274.667969 83.371094 272.273438 84.867188 270.332031 86.789062 C 269.867188 87.265625 270.507812 88.179688 271.117188 87.875 C 274.554688 86.136719 277.648438 83.152344 280.371094 80.214844 C 280.699219 81.453125 280.992188 82.695312 281.21875 83.941406 C 279.730469 85.339844 278.199219 86.691406 276.609375 87.96875 C 275.074219 89.207031 273.234375 90.347656 271.746094 91.734375 C 270.203125 87.53125 268.289062 83.554688 266.078125 79.808594 Z M 272.265625 93.125 C 274.15625 92.066406 275.878906 90.464844 277.484375 89.109375 C 278.898438 87.914062 280.226562 86.660156 281.464844 85.316406 C 281.644531 86.410156 281.800781 87.503906 281.933594 88.601562 C 279.160156 91.308594 276.027344 93.65625 273.328125 96.417969 C 272.996094 95.304688 272.640625 94.207031 272.265625 93.125 Z M 207.105469 329.613281 C 204.859375 331.019531 199.699219 333.484375 198.976562 336.386719 C 198.96875 336.011719 198.953125 335.636719 198.949219 335.261719 C 198.917969 333.636719 198.917969 332.085938 198.8125 330.550781 C 202 330.113281 205.152344 329.539062 208.292969 328.882812 C 207.890625 329.125 207.496094 329.371094 207.105469 329.613281 Z M 213.933594 131.792969 C 210.960938 133.585938 208.210938 135.824219 205.433594 137.890625 C 203.585938 139.261719 201.59375 140.617188 199.882812 142.214844 C 199.914062 141.40625 199.964844 140.605469 199.992188 139.789062 C 201.929688 138.410156 203.734375 136.644531 205.515625 135.316406 C 208.332031 133.214844 211.425781 131.140625 213.816406 128.539062 C 213.835938 129.625 213.886719 130.710938 213.933594 131.792969 Z M 200.015625 112.339844 C 202.171875 111.085938 204.140625 109.148438 206.007812 107.65625 C 208.417969 105.730469 210.785156 103.734375 213.023438 101.609375 C 213.023438 102.769531 213.054688 103.933594 213.085938 105.089844 C 210.347656 107.273438 207.453125 109.265625 204.617188 111.328125 C 203.199219 112.363281 201.507812 113.398438 200.089844 114.644531 C 200.058594 113.878906 200.054688 113.105469 200.015625 112.339844 Z M 213.785156 126.71875 C 213.515625 126.535156 213.164062 126.496094 212.796875 126.738281 C 209.5 128.953125 206.355469 131.492188 203.171875 133.871094 C 202.242188 134.566406 201.148438 135.292969 200.097656 136.085938 C 200.117188 135.316406 200.152344 134.550781 200.167969 133.773438 C 202.371094 132.386719 204.417969 130.664062 206.476562 129.152344 C 208.960938 127.324219 211.378906 125.40625 213.757812 123.441406 C 213.769531 124.535156 213.769531 125.625 213.785156 126.71875 Z M 213.738281 121.199219 C 210.785156 123.066406 207.921875 125.042969 205.050781 127.035156 C 203.492188 128.117188 201.8125 129.238281 200.238281 130.460938 C 200.246094 129.898438 200.269531 129.34375 200.273438 128.78125 C 202.933594 127.195312 205.355469 125.011719 207.75 123.144531 C 209.773438 121.566406 211.746094 119.910156 213.667969 118.203125 C 213.707031 119.199219 213.722656 120.199219 213.738281 121.199219 Z M 213.570312 116.015625 C 211.125 117.707031 208.789062 119.5625 206.425781 121.359375 C 204.449219 122.863281 202.25 124.328125 200.261719 125.964844 C 200.261719 124.824219 200.269531 123.6875 200.257812 122.550781 C 202.511719 121.484375 204.554688 119.699219 206.507812 118.269531 C 208.945312 116.484375 211.238281 114.59375 213.398438 112.519531 C 213.460938 113.6875 213.515625 114.851562 213.570312 116.015625 Z M 213.300781 110.347656 C 211.046875 112.269531 208.707031 114.078125 206.300781 115.804688 C 204.414062 117.160156 202.125 118.382812 200.21875 119.910156 C 200.203125 119.085938 200.203125 118.261719 200.179688 117.433594 C 202.203125 116.261719 204.011719 114.476562 205.832031 113.113281 C 208.363281 111.21875 210.816406 109.289062 213.152344 107.183594 C 213.195312 108.242188 213.25 109.292969 213.300781 110.347656 Z M 213.035156 97.445312 C 213.054688 97.460938 213.070312 97.476562 213.085938 97.492188 C 213.050781 98.304688 213.058594 99.121094 213.050781 99.933594 C 213.023438 99.945312 213 99.953125 212.976562 99.964844 C 210.238281 102.019531 207.542969 104.125 204.820312 106.1875 C 203.28125 107.355469 201.402344 108.625 199.886719 110.089844 C 199.832031 109 199.769531 107.910156 199.691406 106.824219 C 201.148438 105.78125 202.535156 104.601562 203.917969 103.570312 C 206.855469 101.382812 209.890625 99.3125 213.035156 97.445312 Z M 198.046875 91.574219 C 197.789062 89.867188 197.542969 88.160156 197.234375 86.492188 C 198.871094 87.230469 200.433594 88.019531 201.914062 88.851562 C 200.570312 89.371094 199.421875 90.292969 198.386719 91.265625 C 198.28125 91.363281 198.160156 91.46875 198.046875 91.574219 Z M 198.457031 94.21875 C 198.945312 93.667969 199.394531 93.121094 199.8125 92.71875 C 200.519531 92.03125 201.207031 91.308594 201.964844 90.679688 C 202.15625 90.523438 202.367188 90.390625 202.589844 90.265625 C 202.949219 90.066406 202.863281 89.539062 203.273438 90.042969 C 203.320312 90.105469 203.414062 90.0625 203.414062 89.988281 C 203.417969 89.875 203.394531 89.792969 203.378906 89.71875 C 204.261719 90.246094 205.105469 90.800781 205.933594 91.371094 C 205.519531 91.566406 205.121094 91.777344 204.722656 92.015625 C 202.589844 93.304688 199.75 95.078125 198.933594 97.5625 C 198.792969 98.007812 199.261719 98.464844 199.695312 98.242188 C 201.359375 97.40625 202.644531 95.800781 204.101562 94.65625 C 205.144531 93.839844 206.300781 93.132812 207.496094 92.519531 C 208.015625 92.910156 208.492188 93.328125 208.984375 93.730469 C 207.390625 94.949219 205.773438 96.144531 204.144531 97.328125 C 202.558594 98.476562 200.757812 99.558594 199.230469 100.875 C 199.007812 98.636719 198.753906 96.417969 198.457031 94.21875 Z M 199.421875 103.179688 C 201.582031 102.011719 203.464844 100.257812 205.40625 98.792969 C 207.089844 97.519531 208.726562 96.1875 210.328125 94.824219 C 210.832031 95.269531 211.324219 95.722656 211.800781 96.183594 C 207.832031 98.277344 203.164062 100.800781 199.480469 103.941406 C 199.460938 103.691406 199.445312 103.433594 199.421875 103.179688 Z M 199.761719 144.761719 C 202.328125 143.421875 204.625 141.394531 206.914062 139.664062 C 209.316406 137.835938 211.855469 136.046875 214.082031 133.96875 C 214.160156 134.9375 214.21875 135.90625 214.351562 136.863281 C 210.898438 138.949219 207.707031 141.660156 204.523438 144.082031 C 202.988281 145.257812 201.214844 146.480469 199.617188 147.855469 C 199.679688 146.839844 199.710938 145.792969 199.761719 144.761719 Z M 296.382812 233.101562 C 295.710938 233.871094 295.039062 234.636719 294.378906 235.398438 C 293.011719 236.960938 291.144531 238.269531 290.289062 240.195312 C 290.101562 240.632812 290.394531 241.226562 290.941406 241.078125 C 293.035156 240.515625 294.449219 238.773438 295.839844 237.203125 C 295.972656 237.050781 296.09375 236.890625 296.21875 236.730469 L 296.21875 236.742188 C 296.132812 238.125 295.980469 239.464844 295.816406 240.785156 C 294.976562 241.640625 294.144531 242.503906 293.347656 243.398438 C 292.089844 244.792969 290.683594 246.210938 290.074219 248.007812 C 289.875 248.597656 290.550781 249.292969 291.132812 248.941406 C 292.632812 248.027344 293.601562 246.609375 294.675781 245.253906 C 294.835938 245.050781 295.011719 244.859375 295.171875 244.65625 C 294.484375 248.152344 293.523438 251.441406 292.335938 254.601562 C 291.75 255.324219 291.160156 256.050781 290.828125 256.921875 C 290.714844 257.226562 290.898438 257.472656 291.144531 257.578125 C 289.628906 261.121094 287.855469 264.503906 285.882812 267.804688 C 288.480469 259.496094 289.726562 250.390625 289.34375 240.5 C 287.554688 194.820312 241.203125 159.535156 199.648438 151.925781 C 202.164062 150.335938 204.453125 148.136719 206.742188 146.410156 C 210.113281 143.871094 213.917969 141.664062 217.003906 138.789062 C 217.230469 138.578125 217.359375 138.3125 217.425781 138.039062 C 218.617188 138.28125 219.785156 138.582031 220.957031 138.859375 C 215.984375 142.605469 211.449219 146.882812 206.179688 150.285156 C 205.460938 150.75 206.214844 151.90625 206.964844 151.542969 C 212.949219 148.609375 218.59375 144.277344 223.171875 139.375 C 224.414062 139.695312 225.621094 140.066406 226.839844 140.425781 C 224.5625 142.488281 222.445312 144.746094 220.140625 146.792969 C 217.414062 149.21875 214.4375 151.332031 211.820312 153.878906 C 211.492188 154.203125 211.9375 154.839844 212.351562 154.632812 C 218.234375 151.734375 224.6875 146.523438 228.039062 140.769531 C 229.648438 141.265625 231.230469 141.804688 232.800781 142.371094 C 230.472656 144.015625 228.347656 145.960938 226.230469 147.863281 C 223.570312 150.265625 220.511719 152.574219 218.46875 155.535156 C 218.148438 155.996094 218.640625 156.496094 219.113281 156.234375 C 222.007812 154.636719 224.25 152.074219 226.632812 149.828125 C 229.101562 147.503906 231.691406 145.277344 234.066406 142.855469 C 235.367188 143.339844 236.636719 143.867188 237.90625 144.402344 C 235.96875 145.808594 234.121094 147.34375 232.3125 148.886719 C 229.074219 151.640625 225.480469 154.390625 222.847656 157.746094 C 222.550781 158.132812 223.003906 158.777344 223.460938 158.535156 C 227.273438 156.523438 230.394531 153.183594 233.589844 150.351562 C 235.585938 148.582031 237.644531 146.882812 239.6875 145.183594 C 241.046875 145.785156 242.382812 146.417969 243.710938 147.074219 C 241.742188 148.695312 239.785156 150.3125 237.800781 151.890625 C 234.671875 154.375 230.847656 156.832031 228.34375 159.960938 C 227.984375 160.402344 228.570312 161 229.039062 160.769531 C 232.007812 159.316406 234.503906 156.785156 237.015625 154.667969 C 239.695312 152.425781 242.261719 150.046875 244.796875 147.648438 C 246.605469 148.582031 248.375 149.582031 250.113281 150.621094 C 247.566406 152.574219 245.007812 154.515625 242.445312 156.460938 C 239.914062 158.382812 237.085938 160.265625 235.050781 162.730469 C 234.75 163.09375 235.175781 163.722656 235.625 163.5 C 238.222656 162.203125 240.394531 160.144531 242.65625 158.351562 C 245.566406 156.058594 248.398438 153.660156 251.242188 151.292969 C 252.429688 152.019531 253.59375 152.777344 254.742188 153.554688 C 252.714844 155.109375 250.691406 156.65625 248.679688 158.222656 C 246.023438 160.292969 242.597656 162.53125 241.078125 165.609375 C 240.890625 165.984375 241.324219 166.453125 241.714844 166.265625 C 244.492188 164.9375 246.765625 162.355469 249.136719 160.402344 C 251.515625 158.449219 253.9375 156.574219 256.347656 154.671875 C 257.53125 155.503906 258.664062 156.398438 259.804688 157.28125 C 257.367188 159.304688 254.867188 161.25 252.441406 163.289062 C 250.09375 165.261719 247.117188 167.28125 245.65625 170.03125 C 245.496094 170.335938 245.785156 170.730469 246.125 170.554688 C 248.871094 169.125 251.117188 166.472656 253.457031 164.445312 C 255.898438 162.328125 258.289062 160.136719 260.652344 157.925781 C 262.039062 159.027344 263.382812 160.171875 264.703125 161.34375 C 264.578125 161.359375 264.445312 161.394531 264.332031 161.492188 C 260 165.148438 255.214844 168.875 251.589844 173.242188 C 251.25 173.652344 251.832031 174.339844 252.289062 174.050781 C 257.109375 170.984375 261.050781 166.214844 265.238281 162.363281 C 265.371094 162.25 265.417969 162.117188 265.425781 161.992188 C 275.347656 170.976562 283.4375 182.121094 289.160156 195.324219 C 292.703125 203.484375 294.941406 212.058594 295.894531 220.804688 C 294.90625 221.714844 293.914062 222.625 292.933594 223.546875 C 291.554688 224.847656 289.980469 226 288.914062 227.597656 C 288.765625 227.824219 288.960938 228.15625 289.246094 228.042969 C 290.777344 227.441406 291.925781 226.3125 293.105469 225.207031 C 294.113281 224.265625 295.0625 223.269531 296.007812 222.265625 C 296.15625 223.796875 296.242188 225.328125 296.3125 226.863281 C 295.621094 227.453125 294.941406 228.054688 294.289062 228.6875 C 292.8125 230.113281 289.867188 232.257812 289.808594 234.433594 C 289.796875 234.738281 290.113281 234.890625 290.375 234.835938 C 292.042969 234.5 293.144531 232.515625 294.238281 231.339844 C 294.941406 230.589844 295.664062 229.855469 296.390625 229.125 C 296.421875 230.449219 296.414062 231.773438 296.382812 233.101562 Z M 296.382812 233.101562 " fill-opacity="1" fill-rule="nonzero"/></g><path fill="#000000" d="M 268.886719 166.367188 C 264.683594 169.007812 260.949219 172.0625 257.617188 175.738281 C 256.945312 176.46875 257.902344 177.585938 258.664062 176.898438 C 262.269531 173.648438 265.941406 170.445312 269.671875 167.34375 C 270.222656 166.882812 269.480469 165.996094 268.886719 166.367188 Z M 268.886719 166.367188 " fill-opacity="1" fill-rule="nonzero"/><path fill="#000000" d="M 266.464844 61.472656 C 265.847656 62.34375 265.074219 63.039062 264.179688 63.617188 C 263.578125 64 262.480469 64.183594 262.199219 64.894531 C 262.117188 65.113281 262.152344 65.339844 262.363281 65.464844 C 263.152344 65.925781 264.210938 65.132812 264.875 64.714844 C 265.945312 64.042969 266.820312 63.117188 267.53125 62.078125 C 267.972656 61.421875 266.914062 60.839844 266.464844 61.472656 Z M 266.464844 61.472656 " fill-opacity="1" fill-rule="nonzero"/><path fill="#000000" d="M 264.949219 57.476562 C 263.996094 58.414062 262.984375 59.097656 261.847656 59.792969 C 261.5 60.007812 261.671875 60.527344 262.085938 60.472656 C 262.859375 60.371094 263.429688 60.226562 264.074219 59.792969 C 264.6875 59.378906 265.203125 58.847656 265.722656 58.328125 C 266.238281 57.804688 265.480469 56.957031 264.949219 57.476562 Z M 264.949219 57.476562 " fill-opacity="1" fill-rule="nonzero"/><path fill="#ff950c" d="M 269.417969 231.230469 C 249.902344 231.230469 234.09375 236.328125 234.09375 242.609375 L 234.09375 316.625 C 234.09375 322.90625 249.917969 328.003906 269.417969 328.003906 C 288.921875 328.003906 304.746094 322.90625 304.746094 316.625 L 304.746094 242.609375 C 304.746094 236.328125 288.9375 231.230469 269.417969 231.230469 Z M 269.417969 231.230469 " fill-opacity="1" fill-rule="nonzero"/><path fill="#ffd12f" d="M 276.054688 234.210938 C 257.535156 234.210938 242.519531 239.210938 242.519531 245.375 L 242.519531 318.507812 C 242.519531 324.671875 257.535156 329.671875 276.054688 329.671875 C 294.574219 329.671875 306.441406 324.671875 306.441406 318.507812 L 306.441406 245.375 C 306.441406 239.210938 294.574219 234.210938 276.054688 234.210938 Z M 276.054688 234.210938 " fill-opacity="1" fill-rule="nonzero"/><path fill="#ffffff" d="M 297.480469 249.410156 L 297.480469 279.75 L 290.234375 284.148438 L 290.234375 254.558594 Z M 297.480469 249.410156 " fill-opacity="1" fill-rule="nonzero"/><g clip-path="url(#2ef5d1f80f)"><path fill="#8c4f00" d="M 270.269531 228.695312 C 251.316406 228.695312 232.148438 233.578125 232.066406 242.910156 C 232.066406 242.925781 232.066406 242.945312 232.066406 242.960938 L 232.066406 317.941406 C 232.066406 327.304688 251.28125 332.203125 270.285156 332.203125 C 289.269531 332.203125 308.488281 327.304688 308.488281 317.941406 L 308.488281 242.945312 C 308.472656 233.597656 289.253906 228.695312 270.269531 228.695312 Z M 294.375 293.246094 C 287.972656 295.3125 279.410156 296.445312 270.269531 296.445312 C 261.125 296.445312 252.5625 295.3125 246.164062 293.246094 C 240.957031 291.582031 238.582031 289.683594 237.964844 288.5 C 237.898438 288.367188 237.867188 288.25 237.832031 288.148438 C 237.832031 288.117188 237.816406 288.082031 237.816406 288.050781 C 237.816406 288.015625 237.816406 287.980469 237.816406 287.949219 L 237.816406 280.867188 C 244.933594 285.066406 257.648438 287.234375 270.269531 287.234375 C 282.886719 287.234375 295.601562 285.066406 302.71875 280.867188 L 302.71875 287.949219 C 302.71875 287.980469 302.71875 288.015625 302.71875 288.050781 C 302.71875 288.082031 302.703125 288.117188 302.703125 288.148438 C 302.703125 288.183594 302.683594 288.214844 302.667969 288.265625 C 302.285156 289.414062 299.941406 291.449219 294.375 293.246094 Z M 302.71875 272.953125 C 302.71875 272.984375 302.71875 273.019531 302.71875 273.054688 C 302.71875 273.085938 302.703125 273.121094 302.703125 273.152344 C 302.703125 273.1875 302.683594 273.21875 302.667969 273.269531 C 302.285156 274.417969 299.941406 276.46875 294.375 278.25 C 287.972656 280.316406 279.410156 281.449219 270.269531 281.449219 C 261.125 281.449219 252.5625 280.316406 246.164062 278.25 C 240.59375 276.453125 238.25 274.402344 237.867188 273.269531 C 237.851562 273.234375 237.851562 273.203125 237.832031 273.152344 C 237.832031 273.121094 237.816406 273.085938 237.816406 273.054688 C 237.816406 273.019531 237.816406 272.984375 237.816406 272.953125 L 237.816406 265.855469 C 239.511719 266.855469 241.539062 267.753906 243.800781 268.519531 C 251 270.96875 260.660156 272.234375 270.269531 272.234375 C 279.875 272.234375 289.535156 270.988281 296.734375 268.519531 C 298.996094 267.753906 301.023438 266.855469 302.71875 265.855469 Z M 246.164062 237.644531 C 252.5625 235.578125 261.125 234.445312 270.269531 234.445312 C 279.410156 234.445312 287.972656 235.578125 294.375 237.644531 C 300.492188 239.628906 302.71875 241.894531 302.71875 242.945312 C 302.71875 243.992188 300.492188 246.277344 294.375 248.242188 C 287.972656 250.308594 279.410156 251.441406 270.269531 251.441406 C 261.125 251.441406 252.5625 250.308594 246.164062 248.242188 C 240.027344 246.277344 237.800781 243.992188 237.800781 242.945312 C 237.800781 241.910156 240.027344 239.628906 246.164062 237.644531 Z M 237.800781 250.859375 C 244.914062 255.058594 257.632812 257.222656 270.25 257.222656 C 282.867188 257.222656 295.585938 255.058594 302.703125 250.859375 L 302.703125 257.957031 C 302.703125 258.855469 301.054688 260.671875 296.71875 262.40625 C 296.003906 262.6875 295.222656 262.988281 294.339844 263.253906 C 291.464844 264.171875 288.140625 264.921875 284.53125 265.453125 C 280.125 266.105469 275.273438 266.453125 270.234375 266.453125 C 265.199219 266.453125 260.34375 266.105469 255.9375 265.453125 C 252.328125 264.921875 249.003906 264.171875 246.128906 263.253906 C 245.265625 262.972656 244.464844 262.6875 243.75 262.40625 C 239.414062 260.65625 237.765625 258.855469 237.765625 257.957031 L 237.765625 250.859375 Z M 302.71875 317.941406 C 302.71875 318.992188 300.492188 321.273438 294.375 323.238281 C 287.972656 325.304688 279.410156 326.4375 270.269531 326.4375 C 261.125 326.4375 252.5625 325.304688 246.164062 323.238281 C 240.027344 321.273438 237.800781 318.992188 237.800781 317.941406 L 237.800781 310.84375 C 244.914062 315.042969 257.632812 317.207031 270.25 317.207031 C 282.867188 317.207031 295.585938 315.042969 302.703125 310.84375 L 302.703125 317.941406 Z M 302.71875 302.945312 C 302.71875 303.996094 300.492188 306.277344 294.375 308.242188 C 287.972656 310.308594 279.410156 311.441406 270.269531 311.441406 C 261.125 311.441406 252.5625 310.308594 246.164062 308.242188 C 240.027344 306.277344 237.800781 303.996094 237.800781 302.945312 L 237.800781 295.847656 C 237.898438 295.898438 237.984375 295.945312 238.066406 295.996094 C 238.230469 296.097656 238.414062 296.179688 238.582031 296.28125 C 238.765625 296.378906 238.929688 296.464844 239.128906 296.5625 C 239.363281 296.679688 239.59375 296.796875 239.828125 296.914062 C 240.0625 297.03125 240.308594 297.128906 240.558594 297.246094 C 241.042969 297.464844 241.558594 297.679688 242.074219 297.878906 C 242.339844 297.980469 242.605469 298.078125 242.871094 298.179688 C 244.234375 298.679688 245.695312 299.128906 247.242188 299.546875 C 253.941406 301.328125 262.105469 302.230469 270.25 302.230469 C 278.378906 302.230469 286.558594 301.328125 293.242188 299.546875 C 294.789062 299.128906 296.25 298.679688 297.613281 298.179688 C 298.429688 297.878906 299.210938 297.578125 299.941406 297.246094 C 300.191406 297.128906 300.425781 297.03125 300.675781 296.914062 C 300.90625 296.796875 301.140625 296.679688 301.371094 296.5625 C 301.554688 296.464844 301.738281 296.378906 301.921875 296.28125 C 302.085938 296.179688 302.269531 296.082031 302.4375 295.996094 C 302.535156 295.945312 302.617188 295.898438 302.703125 295.847656 L 302.703125 302.945312 Z M 302.71875 302.945312 " fill-opacity="1" fill-rule="nonzero"/></g><path fill="#8c4f00" d="M 283.117188 247.074219 C 281.089844 247.660156 278.179688 248.042969 274.425781 248.226562 L 274.425781 249.773438 L 267.308594 249.773438 L 267.308594 248.292969 C 264.78125 248.257812 262.371094 248.140625 260.078125 247.976562 C 257.78125 247.792969 255.871094 247.574219 254.359375 247.324219 L 258.183594 244.925781 C 259.859375 245.191406 261.738281 245.410156 263.835938 245.578125 C 265.914062 245.742188 267.921875 245.828125 269.835938 245.828125 C 271.480469 245.828125 272.660156 245.777344 273.359375 245.691406 C 274.058594 245.609375 274.425781 245.476562 274.425781 245.292969 C 274.425781 245.09375 273.957031 244.925781 273.042969 244.828125 C 272.113281 244.726562 270.601562 244.609375 268.488281 244.492188 C 265.761719 244.34375 263.5 244.160156 261.691406 243.976562 C 259.878906 243.792969 258.296875 243.492188 256.953125 243.078125 C 255.605469 242.660156 254.941406 242.09375 254.941406 241.394531 C 254.941406 240.578125 256.003906 239.878906 258.148438 239.277344 C 260.277344 238.695312 263.351562 238.3125 267.34375 238.160156 L 267.34375 236.644531 L 274.457031 236.644531 L 274.457031 238.144531 C 278.496094 238.246094 281.90625 238.511719 284.699219 238.960938 L 281.125 241.34375 C 277.664062 240.859375 274.390625 240.609375 271.296875 240.609375 C 268.238281 240.609375 266.710938 240.8125 266.710938 241.226562 C 266.710938 241.425781 267.160156 241.578125 268.074219 241.660156 C 268.988281 241.761719 270.46875 241.859375 272.5625 241.976562 C 275.253906 242.109375 277.515625 242.277344 279.363281 242.460938 C 281.207031 242.644531 282.820312 242.945312 284.183594 243.34375 C 285.546875 243.761719 286.226562 244.308594 286.226562 245.027344 C 286.160156 245.808594 285.148438 246.492188 283.117188 247.074219 Z M 283.117188 247.074219 " fill-opacity="1" fill-rule="nonzero"/><path fill="#ff950c" d="M 231.75 291.316406 C 212.230469 291.316406 196.421875 296.414062 196.421875 302.695312 L 196.421875 345.050781 C 196.421875 351.332031 212.25 356.433594 231.75 356.433594 C 251.25 356.433594 267.074219 351.332031 267.074219 345.050781 L 267.074219 302.695312 C 267.074219 296.414062 251.265625 291.316406 231.75 291.316406 Z M 231.75 291.316406 " fill-opacity="1" fill-rule="nonzero"/><path fill="#ffd12f" d="M 238.382812 294.3125 C 219.863281 294.3125 204.851562 299.3125 204.851562 305.476562 L 204.851562 346.949219 C 204.851562 353.117188 219.863281 358.113281 238.382812 358.113281 C 256.902344 358.113281 268.773438 353.117188 268.773438 346.949219 L 268.773438 305.476562 C 268.773438 299.3125 256.902344 294.3125 238.382812 294.3125 Z M 238.382812 294.3125 " fill-opacity="1" fill-rule="nonzero"/><path fill="#ffffff" d="M 260.890625 306.761719 L 260.890625 352.03125 L 253.644531 356.433594 L 253.644531 311.925781 Z M 260.890625 306.761719 " fill-opacity="1" fill-rule="nonzero"/><path fill="#ff950c" d="M 304.746094 259.65625 C 285.230469 259.65625 269.417969 264.753906 269.417969 271.035156 L 269.417969 345.050781 C 269.417969 351.332031 285.246094 356.433594 304.746094 356.433594 C 324.246094 356.433594 340.074219 351.332031 340.074219 345.050781 L 340.074219 271.035156 C 340.074219 264.753906 324.265625 259.65625 304.746094 259.65625 Z M 304.746094 259.65625 " fill-opacity="1" fill-rule="nonzero"/><path fill="#ffd12f" d="M 311.378906 262.65625 C 292.859375 262.65625 277.847656 267.652344 277.847656 273.820312 L 277.847656 346.949219 C 277.847656 353.117188 292.859375 358.113281 311.378906 358.113281 C 329.898438 358.113281 341.769531 353.117188 341.769531 346.949219 L 341.769531 273.820312 C 341.769531 267.652344 329.898438 262.65625 311.378906 262.65625 Z M 311.378906 262.65625 " fill-opacity="1" fill-rule="nonzero"/><g clip-path="url(#9335da05de)"><path fill="#8c4f00" d="M 270.269531 302.945312 C 270.269531 293.582031 251.050781 288.683594 232.066406 288.683594 C 213.113281 288.683594 193.945312 293.5625 193.863281 302.894531 C 193.863281 302.910156 193.863281 302.929688 193.863281 302.945312 L 193.863281 347.933594 C 193.863281 357.296875 213.078125 362.195312 232.082031 362.195312 C 251.066406 362.195312 270.285156 357.296875 270.285156 347.933594 Z M 264.5 332.9375 C 264.5 333.988281 262.269531 336.269531 256.152344 338.238281 C 249.753906 340.300781 241.191406 341.4375 232.046875 341.4375 C 222.90625 341.4375 214.34375 340.300781 207.941406 338.238281 C 201.824219 336.269531 199.597656 333.988281 199.597656 332.9375 C 199.597656 332.9375 199.597656 332.921875 199.597656 332.921875 L 199.597656 325.839844 C 206.710938 330.039062 219.429688 332.222656 232.046875 332.222656 C 244.667969 332.222656 257.382812 330.054688 264.5 325.855469 Z M 264.5 317.941406 C 264.5 318.992188 262.269531 321.273438 256.152344 323.238281 C 249.753906 325.304688 241.191406 326.4375 232.046875 326.4375 C 222.90625 326.4375 214.34375 325.304688 207.941406 323.238281 C 201.824219 321.273438 199.597656 319.007812 199.597656 317.941406 C 199.597656 317.941406 199.597656 317.925781 199.597656 317.925781 L 199.597656 310.84375 C 206.710938 315.042969 219.429688 317.226562 232.046875 317.226562 C 244.667969 317.226562 257.382812 315.058594 264.5 310.859375 Z M 207.941406 297.648438 C 214.34375 295.582031 222.90625 294.449219 232.046875 294.449219 C 241.191406 294.449219 249.753906 295.582031 256.152344 297.648438 C 262.289062 299.628906 264.5 301.894531 264.5 302.945312 C 264.5 303.996094 262.269531 306.277344 256.152344 308.242188 C 249.753906 310.308594 241.191406 311.441406 232.046875 311.441406 C 222.90625 311.441406 214.34375 310.308594 207.941406 308.242188 C 201.824219 306.277344 199.597656 304.011719 199.597656 302.960938 C 199.597656 301.914062 201.824219 299.628906 207.941406 297.648438 Z M 256.152344 353.25 C 249.753906 355.316406 241.191406 356.449219 232.046875 356.449219 C 222.90625 356.449219 214.34375 355.316406 207.941406 353.25 C 201.824219 351.265625 199.597656 349 199.597656 347.933594 L 199.597656 340.835938 C 206.710938 345.035156 219.429688 347.21875 232.046875 347.21875 C 244.667969 347.21875 257.382812 345.050781 264.5 340.851562 L 264.5 347.933594 C 264.5 349 262.269531 351.265625 256.152344 353.25 Z M 256.152344 353.25 " fill-opacity="1" fill-rule="nonzero"/></g><path fill="#ffffff" d="M 334.054688 277.867188 L 334.054688 352.03125 L 326.824219 356.433594 L 326.824219 283.035156 Z M 334.054688 277.867188 " fill-opacity="1" fill-rule="nonzero"/><path fill="#8c4f00" d="M 244.898438 306.476562 C 242.871094 307.0625 239.960938 307.445312 236.203125 307.628906 L 236.203125 309.175781 L 229.089844 309.175781 L 229.089844 307.695312 C 226.5625 307.660156 224.152344 307.542969 221.855469 307.378906 C 219.5625 307.195312 217.652344 306.976562 216.136719 306.726562 L 219.960938 304.328125 C 221.640625 304.59375 223.519531 304.8125 225.613281 304.976562 C 227.691406 305.144531 229.703125 305.226562 231.617188 305.226562 C 233.261719 305.226562 234.441406 305.179688 235.140625 305.09375 C 235.839844 305.011719 236.203125 304.878906 236.203125 304.695312 C 236.203125 304.496094 235.738281 304.328125 234.824219 304.226562 C 233.894531 304.128906 232.378906 304.011719 230.269531 303.894531 C 227.542969 303.746094 225.28125 303.5625 223.46875 303.378906 C 221.65625 303.195312 220.078125 302.894531 218.730469 302.480469 C 217.386719 302.0625 216.71875 301.496094 216.71875 300.796875 C 216.71875 299.980469 217.785156 299.28125 219.929688 298.679688 C 222.058594 298.097656 225.132812 297.714844 229.121094 297.5625 L 229.121094 296.046875 L 236.238281 296.046875 L 236.238281 297.546875 C 240.277344 297.648438 243.683594 297.914062 246.476562 298.363281 L 242.902344 300.746094 C 239.445312 300.261719 236.171875 300.011719 233.078125 300.011719 C 230.019531 300.011719 228.492188 300.210938 228.492188 300.628906 C 228.492188 300.828125 228.9375 300.980469 229.855469 301.0625 C 230.769531 301.164062 232.246094 301.261719 234.34375 301.378906 C 237.035156 301.511719 239.296875 301.679688 241.140625 301.863281 C 242.988281 302.046875 244.597656 302.34375 245.960938 302.746094 C 247.324219 303.160156 248.007812 303.710938 248.007812 304.429688 C 247.957031 305.210938 246.945312 305.894531 244.898438 306.476562 Z M 244.898438 306.476562 " fill-opacity="1" fill-rule="nonzero"/><g clip-path="url(#6af4d87fb2)"><path fill="#8c4f00" d="M 305.59375 258.671875 C 286.644531 258.671875 267.476562 263.554688 267.390625 272.886719 C 267.390625 272.902344 267.390625 272.917969 267.390625 272.9375 L 267.390625 347.933594 C 267.390625 357.296875 286.609375 362.195312 305.613281 362.195312 C 324.597656 362.195312 343.8125 357.296875 343.8125 347.933594 L 343.8125 272.9375 C 343.796875 263.589844 324.578125 258.671875 305.59375 258.671875 Z M 329.699219 323.238281 C 323.300781 325.304688 314.738281 326.4375 305.59375 326.4375 C 296.453125 326.4375 287.890625 325.304688 281.488281 323.238281 C 276.285156 321.574219 273.910156 319.675781 273.292969 318.492188 C 273.226562 318.359375 273.195312 318.242188 273.160156 318.140625 C 273.160156 318.109375 273.144531 318.074219 273.144531 318.042969 C 273.144531 318.007812 273.144531 317.976562 273.144531 317.941406 L 273.144531 310.859375 C 280.257812 315.058594 292.976562 317.226562 305.59375 317.226562 C 318.210938 317.226562 330.929688 315.058594 338.046875 310.859375 L 338.046875 317.941406 C 338.046875 317.976562 338.046875 318.007812 338.046875 318.042969 C 338.046875 318.074219 338.027344 318.109375 338.027344 318.140625 C 338.027344 318.175781 338.011719 318.207031 337.996094 318.257812 C 337.613281 319.40625 335.269531 321.441406 329.699219 323.238281 Z M 338.046875 302.929688 C 338.046875 302.960938 338.046875 302.996094 338.046875 303.027344 C 338.046875 303.0625 338.027344 303.09375 338.027344 303.128906 C 338.027344 303.160156 338.011719 303.195312 337.996094 303.246094 C 337.613281 304.394531 335.269531 306.445312 329.699219 308.226562 C 323.300781 310.292969 314.738281 311.425781 305.59375 311.425781 C 296.453125 311.425781 287.890625 310.292969 281.488281 308.226562 C 275.921875 306.429688 273.574219 304.378906 273.195312 303.246094 C 273.175781 303.210938 273.175781 303.179688 273.160156 303.128906 C 273.160156 303.09375 273.144531 303.0625 273.144531 303.027344 C 273.144531 302.996094 273.144531 302.960938 273.144531 302.929688 L 273.144531 295.832031 C 274.839844 296.832031 276.867188 297.730469 279.128906 298.496094 C 286.328125 300.945312 295.984375 302.210938 305.59375 302.210938 C 315.203125 302.210938 324.863281 300.960938 332.0625 298.496094 C 334.320312 297.730469 336.351562 296.832031 338.046875 295.832031 Z M 281.488281 267.636719 C 287.890625 265.570312 296.453125 264.4375 305.59375 264.4375 C 314.738281 264.4375 323.300781 265.570312 329.699219 267.636719 C 335.816406 269.621094 338.046875 271.886719 338.046875 272.9375 C 338.046875 273.984375 335.816406 276.269531 329.699219 278.234375 C 323.300781 280.300781 314.738281 281.433594 305.59375 281.433594 C 296.453125 281.433594 287.890625 280.300781 281.488281 278.234375 C 275.371094 276.285156 273.144531 274.003906 273.144531 272.953125 C 273.144531 271.902344 275.371094 269.621094 281.488281 267.636719 Z M 273.144531 280.835938 C 280.257812 285.03125 292.976562 287.199219 305.59375 287.199219 C 318.210938 287.199219 330.929688 285.03125 338.046875 280.835938 L 338.046875 287.949219 C 338.046875 288.847656 336.398438 290.664062 332.0625 292.398438 C 331.347656 292.679688 330.566406 292.980469 329.683594 293.246094 C 326.808594 294.164062 323.484375 294.914062 319.875 295.445312 C 315.46875 296.097656 310.617188 296.445312 305.578125 296.445312 C 300.539062 296.445312 295.6875 296.097656 291.28125 295.445312 C 287.671875 294.914062 284.347656 294.164062 281.472656 293.246094 C 280.609375 292.964844 279.808594 292.679688 279.09375 292.398438 C 274.757812 290.648438 273.109375 288.847656 273.109375 287.949219 L 273.109375 280.835938 Z M 338.046875 347.933594 C 338.046875 348.984375 335.816406 351.265625 329.699219 353.234375 C 323.300781 355.300781 314.738281 356.433594 305.59375 356.433594 C 296.453125 356.433594 287.890625 355.300781 281.488281 353.234375 C 275.371094 351.265625 273.144531 348.984375 273.144531 347.933594 L 273.144531 340.835938 C 280.257812 345.035156 292.976562 347.199219 305.59375 347.199219 C 318.210938 347.199219 330.929688 345.035156 338.046875 340.835938 Z M 338.046875 332.9375 C 338.046875 333.988281 335.816406 336.269531 329.699219 338.238281 C 323.300781 340.300781 314.738281 341.4375 305.59375 341.4375 C 296.453125 341.4375 287.890625 340.300781 281.488281 338.238281 C 275.371094 336.269531 273.144531 334.003906 273.144531 332.9375 L 273.144531 325.839844 C 273.242188 325.890625 273.328125 325.941406 273.410156 325.988281 C 273.574219 326.089844 273.757812 326.171875 273.925781 326.273438 C 274.109375 326.371094 274.273438 326.457031 274.472656 326.554688 C 274.707031 326.671875 274.9375 326.789062 275.171875 326.90625 C 275.40625 327.023438 275.652344 327.121094 275.902344 327.238281 C 276.386719 327.457031 276.902344 327.671875 277.417969 327.871094 C 277.683594 327.972656 277.949219 328.074219 278.214844 328.171875 C 279.578125 328.671875 281.039062 329.121094 282.585938 329.539062 C 289.285156 331.320312 297.449219 332.222656 305.59375 332.222656 C 313.722656 332.222656 321.902344 331.320312 328.585938 329.539062 C 330.132812 329.121094 331.59375 328.671875 332.957031 328.171875 C 333.773438 327.871094 334.554688 327.574219 335.285156 327.238281 C 335.535156 327.121094 335.769531 327.023438 336.015625 326.90625 C 336.25 326.789062 336.484375 326.671875 336.714844 326.554688 C 336.898438 326.457031 337.082031 326.371094 337.265625 326.273438 C 337.429688 326.171875 337.613281 326.074219 337.78125 325.988281 C 337.878906 325.941406 337.960938 325.890625 338.046875 325.839844 Z M 338.046875 332.9375 " fill-opacity="1" fill-rule="nonzero"/></g><path fill="#8c4f00" d="M 318.445312 276.734375 C 316.417969 277.316406 313.507812 277.703125 309.75 277.886719 L 309.75 279.433594 L 302.636719 279.433594 L 302.636719 277.953125 C 300.109375 277.917969 297.699219 277.800781 295.402344 277.636719 C 293.109375 277.453125 291.199219 277.234375 289.683594 276.984375 L 293.507812 274.585938 C 295.1875 274.851562 297.066406 275.070312 299.160156 275.234375 C 301.238281 275.402344 303.25 275.484375 305.164062 275.484375 C 306.808594 275.484375 307.988281 275.433594 308.6875 275.351562 C 309.386719 275.269531 309.75 275.136719 309.75 274.953125 C 309.75 274.753906 309.285156 274.585938 308.371094 274.484375 C 307.441406 274.386719 305.925781 274.269531 303.816406 274.152344 C 301.089844 274.003906 298.828125 273.820312 297.015625 273.636719 C 295.203125 273.453125 293.625 273.152344 292.277344 272.734375 C 290.933594 272.320312 290.265625 271.753906 290.265625 271.054688 C 290.265625 270.238281 291.332031 269.535156 293.476562 268.9375 C 295.601562 268.355469 298.679688 267.96875 302.667969 267.820312 L 302.667969 266.304688 L 309.785156 266.304688 L 309.785156 267.804688 C 313.824219 267.902344 317.230469 268.171875 320.023438 268.621094 L 316.449219 271.003906 C 312.992188 270.519531 309.71875 270.269531 306.625 270.269531 C 303.566406 270.269531 302.035156 270.46875 302.035156 270.886719 C 302.035156 271.085938 302.484375 271.238281 303.398438 271.320312 C 304.316406 271.417969 305.792969 271.519531 307.890625 271.636719 C 310.582031 271.769531 312.84375 271.9375 314.6875 272.121094 C 316.535156 272.304688 318.144531 272.601562 319.507812 273.003906 C 320.871094 273.417969 321.554688 273.96875 321.554688 274.6875 C 321.503906 275.46875 320.472656 276.152344 318.445312 276.734375 Z M 318.445312 276.734375 " fill-opacity="1" fill-rule="nonzero"/></svg>