<svg xmlns="http://www.w3.org/2000/svg" xmlns:xlink="http://www.w3.org/1999/xlink" width="500" zoomAndPan="magnify" viewBox="0 0 375 374.999991" height="500" preserveAspectRatio="xMidYMid meet" version="1.0"><defs><g/><clipPath id="f9edb8a17c"><path d="M 0 0 L 372 0 L 372 371.25 L 0 371.25 Z M 0 0 " clip-rule="nonzero"/></clipPath></defs><path fill="#fe3745" d="M 354.191406 85.816406 L 327.816406 112.191406 L 259.445312 43.824219 L 285.816406 17.449219 C 290.28125 12.984375 296.199219 10.492188 302.519531 10.492188 C 308.84375 10.492188 314.796875 12.945312 319.261719 17.410156 L 354.226562 52.378906 C 363.417969 61.5625 363.417969 76.597656 354.191406 85.816406 Z M 354.191406 85.816406 " fill-opacity="1" fill-rule="nonzero"/><path fill="#ffffff" d="M 239.355469 63.910156 L 252.003906 51.261719 L 320.375 119.632812 L 307.726562 132.28125 Z M 239.355469 63.910156 " fill-opacity="1" fill-rule="nonzero"/><path fill="#fed9a8" d="M 111.097656 327.128906 C 104.363281 332.078125 97.035156 336.132812 89.109375 339.070312 L 53.660156 348.257812 L 23.160156 317.683594 L 25.871094 306.855469 L 29.445312 292.421875 C 32.347656 280.890625 37.441406 270.066406 44.433594 260.46875 L 65.527344 281.632812 L 90.824219 306.851562 Z M 111.097656 327.128906 " fill-opacity="1" fill-rule="nonzero"/><path fill="#333333" d="M 42.054688 351.457031 L 12.890625 358.75 L 15.269531 349.226562 L 20.21875 329.621094 Z M 42.054688 351.457031 " fill-opacity="1" fill-rule="nonzero"/><path fill="#ffb123" d="M 291.359375 130.796875 L 282.839844 122.273438 L 143.644531 261.476562 C 142.640625 262.476562 141.300781 263 139.925781 263.039062 C 138.546875 263 137.246094 262.519531 136.203125 261.476562 C 134.160156 259.429688 134.121094 256.117188 136.203125 254.035156 L 275.441406 114.796875 L 257.621094 96.976562 L 76.6875 277.914062 L 119.242188 320.46875 C 120.207031 319.574219 121.214844 318.796875 122.105469 317.90625 L 300.328125 139.683594 Z M 113.699219 291.421875 C 112.695312 292.425781 111.355469 292.945312 110.015625 292.945312 C 108.675781 292.945312 107.339844 292.425781 106.332031 291.421875 L 106.296875 291.382812 C 104.289062 289.300781 104.25 285.988281 106.296875 283.941406 L 120.992188 269.25 C 123.074219 267.167969 126.421875 267.167969 128.46875 269.210938 C 130.511719 271.257812 130.511719 274.605469 128.429688 276.6875 Z M 113.699219 291.421875 " fill-opacity="1" fill-rule="nonzero"/><path fill="#ff901d" d="M 250.144531 89.578125 L 69.246094 270.472656 L 51.128906 252.355469 C 52.019531 251.386719 52.839844 250.421875 53.730469 249.527344 L 231.953125 71.304688 L 241.03125 80.457031 Z M 250.144531 89.578125 " fill-opacity="1" fill-rule="nonzero"/><g clip-path="url(#f9edb8a17c)"><path fill="#000000" d="M 361.644531 44.945312 L 326.699219 10.007812 C 320.25 3.554688 311.675781 0 302.550781 0 C 293.429688 0 284.851562 3.554688 278.402344 10.007812 L 197.601562 90.804688 C 195.546875 92.859375 195.546875 96.1875 197.601562 98.242188 C 199.660156 100.300781 202.984375 100.300781 205.042969 98.242188 L 231.953125 71.335938 L 250.175781 89.554688 L 69.269531 270.464844 L 51.140625 252.335938 C 52.003906 251.390625 52.855469 250.4375 53.761719 249.527344 L 191.507812 111.78125 C 193.566406 109.722656 193.566406 106.398438 191.507812 104.339844 C 189.453125 102.28125 186.125 102.28125 184.070312 104.339844 L 46.320312 242.089844 C 33.140625 255.269531 23.785156 271.789062 19.265625 289.871094 L 0.554688 364.714844 C 0.109375 366.507812 0.632812 368.40625 1.9375 369.710938 C 2.941406 370.703125 4.28125 371.25 5.65625 371.25 C 6.082031 371.25 6.511719 371.199219 6.933594 371.089844 L 75.894531 353.851562 C 78.710938 353.148438 80.429688 350.292969 79.722656 347.480469 C 79.015625 344.652344 76.152344 342.945312 73.339844 343.652344 L 53.953125 348.496094 L 23.15625 317.691406 L 29.472656 292.417969 C 32.363281 280.871094 37.480469 270.058594 44.433594 260.507812 L 65.542969 281.617188 C 65.542969 281.617188 65.542969 281.621094 65.542969 281.621094 C 65.542969 281.621094 65.546875 281.621094 65.546875 281.621094 L 111.085938 327.164062 C 104.277344 332.125 96.894531 336.226562 88.871094 339.195312 C 86.144531 340.203125 84.757812 343.226562 85.761719 345.953125 C 86.550781 348.082031 88.558594 349.390625 90.695312 349.390625 C 91.300781 349.390625 91.917969 349.285156 92.523438 349.058594 C 106.539062 343.878906 119 335.886719 129.5625 325.328125 L 361.640625 93.246094 C 374.957031 79.933594 374.957031 58.265625 361.644531 44.945312 Z M 42.054688 351.46875 L 12.890625 358.757812 L 20.179688 329.59375 Z M 252.015625 51.269531 L 320.382812 119.628906 L 307.753906 132.253906 L 239.394531 63.894531 Z M 122.125 317.886719 C 121.214844 318.800781 120.207031 319.589844 119.265625 320.460938 L 76.707031 277.902344 L 257.613281 96.996094 L 275.441406 114.824219 L 136.21875 254.042969 C 134.164062 256.097656 134.164062 259.425781 136.21875 261.484375 C 137.246094 262.511719 138.589844 263.023438 139.9375 263.023438 C 141.285156 263.023438 142.628906 262.511719 143.660156 261.484375 L 282.882812 122.261719 L 300.316406 139.695312 Z M 354.207031 85.808594 L 327.820312 112.191406 L 259.457031 43.832031 L 285.84375 17.449219 C 290.308594 12.984375 296.242188 10.523438 302.554688 10.523438 C 308.867188 10.523438 314.796875 12.984375 319.265625 17.449219 L 354.210938 52.386719 C 363.417969 61.605469 363.417969 76.597656 354.207031 85.808594 Z M 354.207031 85.808594 " fill-opacity="1" fill-rule="nonzero"/></g><path fill="#000000" d="M 121.023438 269.242188 L 106.304688 283.964844 C 104.246094 286.023438 104.246094 289.347656 106.304688 291.40625 C 107.332031 292.433594 108.675781 292.945312 110.023438 292.945312 C 111.371094 292.945312 112.714844 292.433594 113.742188 291.40625 L 128.464844 276.679688 C 130.519531 274.625 130.519531 271.296875 128.464844 269.242188 C 126.40625 267.183594 123.082031 267.183594 121.023438 269.242188 Z M 121.023438 269.242188 " fill-opacity="1" fill-rule="nonzero"/><path fill="#e02b3d" d="M 354.191406 85.816406 L 327.816406 112.191406 L 300.289062 84.664062 C 321.378906 76.667969 337.042969 59.667969 347.160156 45.308594 L 354.226562 52.375 C 363.417969 61.5625 363.417969 76.597656 354.191406 85.816406 Z M 354.191406 85.816406 " fill-opacity="1" fill-rule="nonzero"/><path fill="#d1d3d4" d="M 288.683594 87.941406 L 320.378906 119.636719 L 307.730469 132.285156 L 263.800781 88.351562 C 272.726562 89.765625 281.023438 89.5 288.683594 87.941406 Z M 288.683594 87.941406 " fill-opacity="1" fill-rule="nonzero"/><path fill="#e8c091" d="M 111.097656 327.128906 C 104.363281 332.078125 97.035156 336.132812 89.109375 339.070312 L 53.660156 348.257812 L 23.160156 317.683594 L 25.871094 306.855469 C 54.890625 315.5625 75.90625 313.214844 90.824219 306.855469 Z M 111.097656 327.128906 " fill-opacity="1" fill-rule="nonzero"/><path fill="#ea9a1b" d="M 300.328125 139.683594 L 122.109375 317.90625 C 121.21875 318.796875 120.210938 319.578125 119.246094 320.46875 L 110.464844 311.691406 L 291.363281 130.792969 Z M 300.328125 139.683594 " fill-opacity="1" fill-rule="nonzero"/><path fill="#ea9a1b" d="M 120.992188 269.25 L 106.296875 283.941406 C 104.25 285.988281 104.289062 289.300781 106.296875 291.382812 L 98.226562 299.453125 L 85.207031 286.433594 L 266.140625 105.5 L 275.441406 114.796875 L 136.203125 254.035156 C 134.121094 256.117188 134.160156 259.429688 136.203125 261.476562 L 128.46875 269.210938 C 126.421875 267.167969 123.074219 267.167969 120.992188 269.25 Z M 120.992188 269.25 " fill-opacity="1" fill-rule="nonzero"/><path fill="#ea7c18" d="M 60.132812 261.363281 L 241.027344 80.464844 L 250.144531 89.578125 L 69.246094 270.480469 Z M 60.132812 261.363281 " fill-opacity="1" fill-rule="nonzero"/><path fill="#212121" d="M 42.054688 351.457031 L 12.890625 358.75 L 15.269531 349.226562 C 22.042969 347.8125 28.214844 344.464844 32.34375 341.75 Z M 42.054688 351.457031 " fill-opacity="1" fill-rule="nonzero"/><g fill="#000000" fill-opacity="1"><g transform="translate(165.429574, 183.849994)"><g><path d="M 2 0.109375 C 1.425781 0.109375 1.140625 -0.25 1.140625 -0.96875 C 1.140625 -1.695312 1.425781 -2.0625 2 -2.0625 C 2.570312 -2.0625 2.859375 -1.695312 2.859375 -0.96875 C 2.859375 -0.25 2.570312 0.109375 2 0.109375 Z M 2 0.109375 "/></g></g></g></svg>