<svg xmlns="http://www.w3.org/2000/svg" xmlns:xlink="http://www.w3.org/1999/xlink" width="500" zoomAndPan="magnify" viewBox="0 0 375 374.999991" height="500" preserveAspectRatio="xMidYMid meet" version="1.0"><defs><g/><clipPath id="a41b3f342c"><path d="M 20.296875 0 L 354.515625 0 L 354.515625 375 L 20.296875 375 Z M 20.296875 0 " clip-rule="nonzero"/></clipPath></defs><g clip-path="url(#a41b3f342c)"><path fill="#000000" d="M 260.984375 223.140625 C 262.878906 229.925781 261.167969 240.300781 263.351562 246.796875 C 286.074219 247.453125 303.984375 243.304688 323.636719 240.878906 C 329.8125 232.871094 334.015625 222.890625 337.816406 212.496094 C 309.824219 213.660156 286.753906 219.753906 260.984375 223.140625 Z M 45.851562 149.816406 C 41.148438 153.082031 36.722656 154.488281 35.214844 159.277344 C 30.632812 173.835938 38.867188 197.960938 42.308594 213.679688 C 46.496094 232.84375 50.75 250.8125 54.125 265.722656 C 81.992188 264.914062 108.773438 262.949219 139.234375 262.171875 C 147.589844 293.230469 149.632812 330.613281 159.328125 360.332031 C 194.765625 357.550781 241.160156 364.742188 246.804688 337.859375 C 228.230469 343.125 196.285156 349.257812 175.878906 341.410156 C 172.5 301.429688 165.664062 264.902344 159.328125 227.875 C 126.550781 234.460938 93.246094 250.378906 60.035156 243.246094 C 51.921875 218.953125 48.503906 180.359375 45.851562 149.816406 Z M 117.960938 45.730469 C 119.671875 73.191406 122.136719 99.902344 128.597656 122.609375 C 136.605469 123.527344 141.167969 121 148.691406 121.429688 C 147.023438 91.007812 142.417969 56.898438 136.871094 26.8125 C 132.003906 34.558594 123.144531 38.308594 117.960938 45.730469 Z M 148.691406 22.078125 C 150.4375 60.136719 156.460938 87.382812 159.328125 124.972656 C 155.058594 124.648438 156.625 130.15625 154.601562 132.070312 C 122.558594 134.40625 80.914062 133.121094 58.859375 141.535156 C 50.777344 172.722656 61.5 204.796875 67.128906 232.601562 C 104.792969 238.070312 132.621094 221.320312 165.238281 214.863281 C 172.097656 253.332031 178.121094 292.652344 182.96875 333.132812 C 210.859375 337.851562 234.53125 328.984375 258.621094 326.039062 C 263.226562 286.953125 251.40625 248.234375 253.898438 211.308594 C 283.1875 207.90625 311.429688 203.441406 340.183594 199.484375 C 347.050781 173.328125 335.621094 140.710938 339 110.785156 C 305.714844 108.4375 275.769531 119.125 242.074219 120.25 C 233.492188 91.960938 233.378906 48.625 225.527344 13.800781 C 201.226562 15.335938 172.554688 16.867188 148.691406 22.078125 Z M 233.800781 0.792969 C 244.671875 31.699219 242.09375 76.078125 252.710938 107.234375 C 283.136719 104.15625 313.09375 94.351562 346.089844 97.773438 C 352.929688 104.894531 349.667969 114.03125 349.636719 123.796875 C 349.558594 151.753906 357.613281 185.625 353.1875 211.308594 C 349.972656 229.945312 337.066406 243.746094 329.542969 255.074219 C 310.101562 258.089844 290.652344 261.109375 268.074219 260.984375 C 268.691406 285.367188 274.074219 309.417969 270.441406 334.316406 C 258.445312 343.261719 254.261719 364.011719 237.339844 369.796875 C 230.960938 371.980469 218.878906 372.480469 208.972656 373.34375 C 188.753906 375.109375 166.980469 375.953125 151.054688 373.34375 C 141.5 344.269531 135.054688 312.085938 130.960938 277.550781 C 105.367188 276.414062 74.011719 279.679688 47.035156 281.089844 C 36.363281 260.351562 29.945312 220.261719 24.574219 188.84375 C 22.582031 177.175781 18.671875 163.097656 21.03125 154.542969 C 24.472656 142.039062 43.960938 139.664062 49.402344 127.339844 C 71.074219 126.957031 87.699219 121.507812 110.867188 122.609375 C 112.882812 109.046875 109.101562 95.589844 107.320312 81.214844 C 105.65625 67.800781 100.164062 50.410156 103.769531 38.636719 C 105.730469 32.269531 114.109375 29.910156 119.136719 25.632812 C 125.578125 20.148438 127.984375 12.949219 134.503906 7.886719 C 167.535156 6.226562 199.582031 -2.671875 233.800781 0.792969 " fill-opacity="1" fill-rule="evenodd"/></g><path fill="#ffce00" d="M 120.320312 185.292969 C 120.84375 188.714844 122.8125 190.683594 126.234375 191.207031 C 128.222656 187.289062 132.316406 185.472656 132.140625 179.382812 C 127.261719 177.210938 121.871094 180.652344 120.320312 185.292969 Z M 104.953125 185.292969 C 107.210938 185.800781 107.09375 188.671875 110.867188 187.660156 C 113.621094 184.109375 116.285156 180.46875 115.59375 173.46875 C 110.277344 171.316406 105.261719 178.601562 104.953125 185.292969 Z M 223.164062 167.554688 C 223.355469 174.128906 231.414062 178.308594 236.167969 173.46875 C 237.167969 170.203125 229.65625 163.113281 223.164062 167.554688 Z M 242.070312 159.277344 C 243.996094 164.84375 245.035156 171.289062 253.894531 169.917969 C 254.464844 162.347656 249 155.519531 242.070312 159.277344 Z M 225.527344 13.800781 C 233.378906 48.625 233.492188 91.960938 242.070312 120.25 C 275.769531 119.121094 305.714844 108.4375 339 110.78125 C 335.625 140.710938 347.050781 173.328125 340.183594 199.480469 C 311.429688 203.4375 283.1875 207.90625 253.894531 211.308594 C 251.40625 248.234375 263.226562 286.953125 258.617188 326.039062 C 234.53125 328.984375 210.859375 337.851562 182.96875 333.132812 C 178.121094 292.652344 172.097656 253.332031 165.238281 214.863281 C 132.621094 221.320312 104.792969 238.070312 67.128906 232.601562 C 61.5 204.796875 50.777344 172.722656 58.859375 141.53125 C 80.914062 133.121094 122.558594 134.40625 154.601562 132.070312 C 156.625 130.160156 155.058594 124.648438 159.328125 124.972656 C 156.460938 87.382812 150.4375 60.136719 148.691406 22.082031 C 172.554688 16.867188 201.226562 15.335938 225.527344 13.800781 " fill-opacity="1" fill-rule="evenodd"/><path fill="#bc9904" d="M 136.875 26.808594 C 142.417969 56.898438 147.027344 91.007812 148.691406 121.425781 C 141.167969 121 136.609375 123.53125 128.601562 122.609375 C 122.136719 99.902344 119.671875 73.191406 117.960938 45.730469 C 123.144531 38.304688 132.003906 34.558594 136.875 26.808594 " fill-opacity="1" fill-rule="evenodd"/><path fill="#bc9904" d="M 60.035156 243.246094 C 93.246094 250.378906 126.550781 234.460938 159.328125 227.875 C 165.664062 264.902344 172.5 301.429688 175.878906 341.410156 C 196.285156 349.257812 228.230469 343.125 246.804688 337.859375 C 241.160156 364.742188 194.765625 357.550781 159.328125 360.332031 C 149.632812 330.613281 147.589844 293.230469 139.234375 262.171875 C 108.773438 262.949219 81.992188 264.914062 54.125 265.722656 C 50.75 250.8125 46.496094 232.84375 42.308594 213.679688 C 38.867188 197.960938 30.632812 173.835938 35.214844 159.277344 C 36.722656 154.488281 41.148438 153.082031 45.851562 149.816406 C 48.503906 180.363281 51.921875 218.953125 60.035156 243.246094 " fill-opacity="1" fill-rule="evenodd"/><path fill="#000000" d="M 253.894531 169.917969 C 245.035156 171.289062 243.996094 164.847656 242.074219 159.277344 C 249 155.519531 254.464844 162.347656 253.894531 169.917969 " fill-opacity="1" fill-rule="evenodd"/><path fill="#000000" d="M 236.167969 173.46875 C 231.414062 178.308594 223.355469 174.128906 223.164062 167.554688 C 229.65625 163.113281 237.167969 170.203125 236.167969 173.46875 " fill-opacity="1" fill-rule="evenodd"/><path fill="#000000" d="M 115.59375 173.46875 C 116.285156 180.472656 113.621094 184.109375 110.867188 187.660156 C 107.09375 188.671875 107.210938 185.800781 104.953125 185.292969 C 105.261719 178.605469 110.277344 171.316406 115.59375 173.46875 " fill-opacity="1" fill-rule="evenodd"/><path fill="#000000" d="M 132.140625 179.382812 C 132.316406 185.472656 128.222656 187.289062 126.234375 191.207031 C 122.8125 190.683594 120.84375 188.714844 120.320312 185.292969 C 121.871094 180.652344 127.261719 177.210938 132.140625 179.382812 " fill-opacity="1" fill-rule="evenodd"/><path fill="#bc9904" d="M 337.816406 212.496094 C 334.015625 222.890625 329.8125 232.871094 323.636719 240.878906 C 303.984375 243.304688 286.074219 247.453125 263.351562 246.796875 C 261.167969 240.300781 262.878906 229.925781 260.984375 223.140625 C 286.753906 219.753906 309.824219 213.660156 337.816406 212.496094 " fill-opacity="1" fill-rule="evenodd"/><g fill="#000000" fill-opacity="1"><g transform="translate(111.251649, 98.054569)"><g><path d="M 0.390625 1.9375 L 4.0625 -12.15625 L 4.21875 -12.15625 L 0.546875 1.9375 Z M 0.390625 1.9375 "/></g></g></g></svg>