<svg xmlns="http://www.w3.org/2000/svg" xmlns:xlink="http://www.w3.org/1999/xlink" width="500" zoomAndPan="magnify" viewBox="0 0 375 374.999991" height="500" preserveAspectRatio="xMidYMid meet" version="1.0"><defs><g/><clipPath id="fdb6619d9d"><path d="M 61.875 113 L 294 113 L 294 375 L 61.875 375 Z M 61.875 113 " clip-rule="nonzero"/></clipPath><clipPath id="fb71307d85"><path d="M 138 0 L 337.875 0 L 337.875 164 L 138 164 Z M 138 0 " clip-rule="nonzero"/></clipPath><clipPath id="1dabbbf97b"><path d="M 255 23 L 337.875 23 L 337.875 164 L 255 164 Z M 255 23 " clip-rule="nonzero"/></clipPath><clipPath id="764ba5ba5b"><path d="M 287 91 L 337.875 91 L 337.875 164 L 287 164 Z M 287 91 " clip-rule="nonzero"/></clipPath></defs><path fill="#c4c3c3" d="M 291.296875 131.484375 L 291.273438 118.585938 C 291.273438 117.703125 291.179688 116.839844 291.011719 116.007812 L 64.609375 117.007812 C 64.449219 117.84375 64.359375 118.707031 64.363281 119.585938 L 64.457031 132.484375 L 70.152344 132.460938 C 70.152344 132.488281 70.160156 132.570312 70.167969 132.683594 C 70.167969 132.925781 70.167969 133.164062 70.195312 133.433594 L 94.71875 362.363281 C 95.324219 368.03125 100.421875 372.609375 106.101562 372.582031 L 251.78125 371.9375 C 257.464844 371.914062 262.519531 367.292969 263.074219 361.617188 L 285.1875 136.410156 L 285.203125 136.21875 L 285.203125 136.207031 L 285.570312 132.484375 C 285.601562 132.171875 285.605469 131.886719 285.59375 131.617188 L 285.605469 131.507812 L 291.296875 131.484375 " fill-opacity="1" fill-rule="nonzero"/><g clip-path="url(#fdb6619d9d)"><path fill="#330e12" d="M 291.296875 131.484375 L 293.710938 131.480469 L 293.691406 118.582031 L 293.691406 118.578125 C 293.6875 117.527344 293.574219 116.507812 293.375 115.527344 L 292.984375 113.589844 L 62.613281 114.601562 L 62.242188 116.550781 C 62.054688 117.507812 61.949219 118.503906 61.949219 119.535156 L 61.949219 119.644531 L 64.363281 119.585938 L 61.949219 119.605469 L 62.0625 134.90625 L 70.164062 134.871094 L 70.152344 132.460938 L 67.738281 132.460938 L 67.742188 132.609375 C 67.75 132.707031 67.753906 132.78125 67.761719 132.882812 L 70.167969 132.683594 L 67.753906 132.664062 L 67.753906 132.792969 C 67.753906 133.023438 67.757812 133.335938 67.796875 133.691406 L 67.792969 133.6875 L 92.316406 362.621094 C 92.695312 366.09375 94.417969 369.167969 96.875 371.378906 C 99.332031 373.59375 102.566406 374.988281 106.058594 374.992188 L 106.085938 374.992188 L 106.074219 373.550781 L 106.0625 374.992188 L 106.085938 374.992188 L 106.074219 373.550781 L 106.0625 374.992188 L 106.078125 372.914062 L 105.953125 374.988281 L 106.0625 374.992188 L 106.078125 372.914062 L 105.953125 374.988281 L 106.023438 374.992188 L 251.792969 374.347656 C 255.292969 374.332031 258.53125 372.914062 260.980469 370.675781 C 263.429688 368.4375 265.132812 365.339844 265.476562 361.855469 L 287.589844 136.644531 L 287.609375 136.457031 L 287.609375 136.417969 L 287.972656 132.71875 L 287.972656 132.714844 C 288.003906 132.410156 288.011719 132.128906 288.011719 131.871094 C 288.011719 131.753906 288.011719 131.648438 288.007812 131.550781 L 285.59375 131.617188 L 288 131.824219 L 288.011719 131.714844 L 285.605469 131.507812 L 285.617188 133.917969 L 293.714844 133.882812 L 293.710938 131.480469 L 291.296875 131.484375 L 291.285156 129.074219 L 283.386719 129.109375 L 283.179688 131.546875 L 283.183594 131.679688 L 283.183594 131.871094 C 283.183594 132 283.179688 132.121094 283.167969 132.25 L 283.167969 132.246094 L 282.800781 135.992188 L 282.796875 136.011719 L 282.78125 136.167969 L 282.78125 136.171875 L 260.671875 361.382812 C 260.460938 363.574219 259.359375 365.617188 257.722656 367.117188 C 256.082031 368.617188 253.953125 369.523438 251.769531 369.527344 L 106.089844 370.171875 L 106.101562 372.582031 L 106.25 370.171875 L 106.050781 370.171875 L 106.058594 371.132812 L 106.058594 370.171875 L 106.050781 370.171875 L 106.058594 371.132812 L 106.058594 370.171875 C 103.882812 370.171875 101.753906 369.285156 100.109375 367.800781 C 98.460938 366.320312 97.347656 364.285156 97.121094 362.105469 L 72.597656 133.175781 L 72.597656 133.171875 C 72.585938 133.070312 72.582031 132.96875 72.582031 132.792969 L 72.582031 132.589844 L 72.574219 132.484375 L 72.566406 132.375 L 72.566406 132.367188 L 71.011719 132.460938 L 72.566406 132.460938 C 72.566406 132.359375 72.566406 132.367188 72.566406 132.367188 L 71.011719 132.460938 L 72.566406 132.460938 L 72.566406 130.039062 L 66.855469 130.0625 L 66.777344 119.546875 L 66.777344 119.53125 L 66.699219 119.53125 L 66.777344 119.535156 L 66.777344 119.53125 L 66.699219 119.53125 L 66.777344 119.535156 C 66.777344 118.828125 66.851562 118.144531 66.984375 117.460938 L 64.609375 117.007812 L 64.621094 119.417969 L 291.023438 118.417969 L 291.011719 116.007812 L 288.640625 116.484375 C 288.78125 117.175781 288.859375 117.875 288.859375 118.597656 L 288.859375 118.589844 L 288.882812 131.488281 L 291.296875 131.484375 L 291.285156 129.074219 L 291.296875 131.484375 " fill-opacity="1" fill-rule="nonzero"/></g><path fill="#e7e6e6" d="M 118.621094 154.757812 C 118.300781 149.558594 112.632812 145.367188 105.964844 145.398438 C 99.300781 145.429688 94.257812 149.664062 94.699219 154.863281 L 111.078125 346.425781 C 111.523438 351.621094 116.191406 355.816406 121.503906 355.792969 C 126.820312 355.769531 130.863281 351.535156 130.539062 346.339844 L 118.621094 154.757812 " fill-opacity="1" fill-rule="nonzero"/><path fill="#330e12" d="M 118.621094 154.757812 L 121.03125 154.605469 C 120.925781 152.894531 120.378906 151.28125 119.519531 149.863281 C 118.226562 147.734375 116.269531 146.03125 113.945312 144.84375 C 111.617188 143.660156 108.90625 142.988281 106.035156 142.984375 L 106 142.984375 L 105.863281 142.988281 L 105.964844 145.398438 L 105.957031 142.988281 C 102.273438 143.007812 98.933594 144.125 96.429688 146.089844 C 95.175781 147.070312 94.136719 148.273438 93.402344 149.652344 C 92.671875 151.03125 92.257812 152.597656 92.257812 154.226562 C 92.257812 154.503906 92.269531 154.785156 92.292969 155.070312 L 92.292969 155.066406 L 108.671875 346.628906 C 108.953125 349.886719 110.539062 352.773438 112.832031 354.84375 C 115.125 356.910156 118.171875 358.203125 121.460938 358.203125 L 121.492188 358.203125 L 121.480469 356.652344 L 121.460938 358.203125 L 121.492188 358.203125 L 121.480469 356.652344 L 121.460938 358.203125 L 121.484375 356.09375 L 121.347656 358.199219 L 121.460938 358.203125 L 121.484375 356.09375 L 121.347656 358.199219 L 121.429688 358.203125 L 121.515625 358.203125 C 124.691406 358.191406 127.578125 356.953125 129.644531 354.910156 C 131.714844 352.878906 132.976562 350.027344 132.972656 346.921875 C 132.972656 346.675781 132.964844 346.433594 132.949219 346.1875 L 121.03125 154.605469 L 118.621094 154.757812 L 116.214844 154.902344 L 128.128906 346.488281 C 128.140625 346.632812 128.144531 346.777344 128.144531 346.921875 C 128.140625 348.734375 127.429688 350.316406 126.253906 351.480469 C 125.070312 352.640625 123.429688 353.371094 121.492188 353.382812 L 121.503906 355.792969 L 121.65625 353.390625 L 121.480469 353.382812 L 121.449219 353.382812 L 121.460938 354.53125 L 121.460938 353.382812 L 121.449219 353.382812 L 121.460938 354.53125 L 121.460938 353.382812 C 119.457031 353.386719 117.53125 352.582031 116.070312 351.265625 C 114.601562 349.941406 113.644531 348.144531 113.480469 346.21875 L 97.105469 154.65625 C 97.09375 154.507812 97.085938 154.371094 97.085938 154.226562 C 97.089844 153.402344 97.285156 152.644531 97.671875 151.910156 C 98.246094 150.820312 99.277344 149.796875 100.710938 149.042969 C 102.136719 148.289062 103.945312 147.816406 105.976562 147.808594 L 106.039062 147.804688 L 106.066406 147.804688 L 106 146.175781 L 106 147.804688 L 106.066406 147.804688 L 106 146.175781 L 106 147.804688 L 106.035156 147.804688 C 108.839844 147.800781 111.429688 148.707031 113.253906 150.066406 C 114.167969 150.75 114.890625 151.53125 115.386719 152.355469 C 115.882812 153.179688 116.15625 154.027344 116.214844 154.902344 L 118.621094 154.757812 " fill-opacity="1" fill-rule="nonzero"/><path fill="#e7e6e6" d="M 166.167969 154.546875 C 166.085938 149.347656 160.613281 145.15625 153.949219 145.1875 C 147.277344 145.21875 142.042969 149.453125 142.246094 154.652344 L 149.757812 346.253906 C 149.960938 351.453125 154.433594 355.648438 159.746094 355.625 C 165.0625 355.601562 169.300781 351.367188 169.214844 346.171875 L 166.167969 154.546875 " fill-opacity="1" fill-rule="nonzero"/><path fill="#330e12" d="M 166.167969 154.546875 L 168.582031 154.507812 C 168.554688 152.792969 168.082031 151.164062 167.277344 149.726562 C 166.070312 147.566406 164.164062 145.839844 161.875 144.644531 C 159.582031 143.449219 156.886719 142.777344 154.015625 142.777344 L 153.851562 142.777344 L 153.949219 145.1875 L 153.9375 142.777344 C 150.164062 142.796875 146.730469 143.96875 144.148438 145.988281 C 142.855469 147 141.78125 148.234375 141.019531 149.65625 C 140.257812 151.074219 139.824219 152.679688 139.824219 154.359375 C 139.824219 154.484375 139.828125 154.617188 139.835938 154.753906 L 139.832031 154.746094 L 147.347656 346.347656 C 147.472656 349.605469 148.9375 352.542969 151.164062 354.636719 C 153.386719 356.734375 156.40625 358.035156 159.699219 358.035156 L 159.75 358.035156 L 159.742188 357.597656 L 159.746094 358.035156 L 159.75 358.035156 L 159.742188 357.597656 L 159.746094 358.035156 L 159.722656 355.902344 L 159.539062 358.027344 C 159.632812 358.035156 159.703125 358.035156 159.730469 358.035156 C 159.738281 358.035156 159.746094 358.035156 159.746094 358.035156 L 159.722656 355.902344 L 159.539062 358.027344 L 159.640625 358.035156 L 159.757812 358.035156 C 163.023438 358.023438 166.003906 356.714844 168.152344 354.601562 C 170.300781 352.496094 171.632812 349.550781 171.632812 346.316406 L 171.628906 346.140625 L 171.628906 346.128906 L 168.582031 154.507812 L 163.753906 154.582031 L 166.800781 346.207031 L 166.800781 346.195312 L 166.804688 346.316406 C 166.800781 348.214844 166.035156 349.910156 164.761719 351.167969 C 163.484375 352.421875 161.726562 353.203125 159.734375 353.210938 L 159.746094 355.625 L 159.953125 353.21875 C 159.832031 353.210938 159.746094 353.210938 159.707031 353.210938 L 159.671875 353.210938 L 159.699219 354.90625 L 159.699219 353.210938 L 159.671875 353.210938 L 159.699219 354.90625 L 159.699219 353.210938 C 157.695312 353.210938 155.847656 352.421875 154.476562 351.128906 C 153.105469 349.832031 152.246094 348.082031 152.171875 346.160156 L 144.65625 154.558594 L 144.65625 154.554688 L 144.652344 154.359375 C 144.65625 153.503906 144.867188 152.703125 145.277344 151.929688 C 145.894531 150.773438 146.996094 149.691406 148.5 148.894531 C 149.996094 148.101562 151.875 147.605469 153.957031 147.597656 L 153.996094 147.597656 L 154.042969 147.59375 L 153.980469 146.066406 L 153.980469 147.597656 L 154.042969 147.59375 L 153.980469 146.066406 L 153.980469 147.597656 L 154.015625 147.597656 C 156.828125 147.59375 159.34375 148.496094 161.074219 149.832031 C 161.941406 150.5 162.609375 151.269531 163.054688 152.070312 C 163.503906 152.878906 163.738281 153.707031 163.753906 154.582031 L 166.167969 154.546875 " fill-opacity="1" fill-rule="nonzero"/><path fill="#e7e6e6" d="M 213.710938 154.339844 C 213.871094 149.136719 208.597656 144.941406 201.925781 144.972656 C 195.257812 145.003906 189.828125 149.242188 189.789062 154.441406 L 188.433594 346.082031 C 188.402344 351.28125 192.675781 355.480469 197.992188 355.453125 C 203.304688 355.429688 207.738281 351.195312 207.898438 345.996094 L 213.710938 154.339844 " fill-opacity="1" fill-rule="nonzero"/><path fill="#330e12" d="M 213.710938 154.339844 L 216.125 154.40625 C 216.125 154.308594 216.128906 154.210938 216.128906 154.109375 C 216.128906 152.429688 215.695312 150.816406 214.929688 149.398438 C 213.785156 147.265625 211.933594 145.5625 209.703125 144.390625 C 207.464844 143.21875 204.824219 142.5625 201.996094 142.5625 L 201.949219 142.5625 L 201.777344 142.566406 L 201.925781 144.972656 L 201.914062 142.5625 C 198.074219 142.585938 194.550781 143.796875 191.886719 145.871094 C 190.558594 146.90625 189.441406 148.164062 188.644531 149.613281 C 187.855469 151.0625 187.386719 152.703125 187.375 154.425781 L 186.019531 346.070312 L 186.019531 346.058594 L 186.019531 346.152344 C 186.019531 349.394531 187.367188 352.347656 189.523438 354.457031 C 191.679688 356.570312 194.671875 357.863281 197.945312 357.863281 L 197.945312 355.9375 L 197.769531 357.855469 L 197.945312 357.863281 L 197.945312 355.9375 L 197.769531 357.855469 L 197.886719 357.863281 L 198.003906 357.863281 C 201.304688 357.851562 204.328125 356.527344 206.542969 354.410156 C 208.761719 352.296875 210.210938 349.34375 210.308594 346.074219 L 216.125 154.410156 L 213.710938 154.339844 L 211.296875 154.265625 L 205.484375 345.925781 C 205.421875 347.851562 204.574219 349.617188 203.207031 350.925781 C 201.839844 352.230469 199.992188 353.035156 197.980469 353.042969 L 197.992188 355.453125 L 198.214844 353.054688 C 198.105469 353.042969 198.007812 353.042969 197.945312 353.042969 C 195.949219 353.042969 194.1875 352.261719 192.90625 351.011719 C 191.625 349.753906 190.851562 348.058594 190.847656 346.152344 L 190.847656 346.101562 L 192.203125 154.460938 C 192.210938 153.578125 192.441406 152.742188 192.882812 151.929688 C 193.542969 150.71875 194.722656 149.574219 196.296875 148.742188 C 197.871094 147.90625 199.820312 147.394531 201.9375 147.382812 L 202.007812 147.382812 L 202.078125 147.378906 L 201.964844 145.578125 L 201.976562 147.382812 L 202.078125 147.378906 L 201.964844 145.578125 L 201.976562 147.382812 L 201.972656 146.882812 L 201.96875 147.382812 L 201.976562 147.382812 L 201.972656 146.882812 L 201.96875 147.382812 L 201.996094 147.382812 C 204.761719 147.378906 207.183594 148.253906 208.820312 149.535156 C 209.640625 150.175781 210.261719 150.910156 210.675781 151.679688 C 211.089844 152.453125 211.296875 153.25 211.300781 154.109375 L 211.296875 154.265625 L 213.710938 154.339844 " fill-opacity="1" fill-rule="nonzero"/><path fill="#e7e6e6" d="M 261.257812 154.125 C 261.65625 148.925781 256.574219 144.734375 249.90625 144.761719 C 243.242188 144.792969 237.613281 149.03125 237.335938 154.234375 L 227.117188 345.914062 C 226.835938 351.113281 230.917969 355.308594 236.234375 355.289062 C 241.546875 355.265625 246.175781 351.027344 246.574219 345.828125 L 261.257812 154.125 " fill-opacity="1" fill-rule="nonzero"/><path fill="#330e12" d="M 261.257812 154.125 L 263.667969 154.308594 C 263.683594 154.054688 263.691406 153.804688 263.691406 153.554688 C 263.695312 151.925781 263.28125 150.355469 262.546875 148.976562 C 261.441406 146.902344 259.648438 145.242188 257.480469 144.109375 C 255.304688 142.976562 252.738281 142.351562 249.976562 142.351562 L 249.929688 142.351562 L 249.753906 142.359375 L 249.90625 144.761719 L 249.894531 142.351562 C 246.054688 142.375 242.496094 143.585938 239.769531 145.632812 C 238.40625 146.660156 237.253906 147.898438 236.402344 149.332031 C 235.550781 150.761719 235.011719 152.386719 234.921875 154.105469 L 224.703125 345.785156 C 224.691406 345.992188 224.6875 346.199219 224.6875 346.410156 C 224.683594 349.539062 225.949219 352.394531 228.03125 354.429688 C 230.113281 356.46875 233.007812 357.699219 236.195312 357.699219 L 236.242188 357.695312 L 236.207031 355.6875 L 236.167969 357.695312 L 236.242188 357.695312 L 236.207031 355.6875 L 236.167969 357.695312 L 236.214844 355.421875 L 235.910156 357.675781 C 236.019531 357.691406 236.105469 357.695312 236.167969 357.695312 L 236.214844 355.421875 L 235.910156 357.675781 L 236.078125 357.699219 L 236.242188 357.699219 C 239.546875 357.679688 242.59375 356.371094 244.878906 354.277344 C 247.164062 352.1875 248.730469 349.277344 248.984375 346.011719 L 263.667969 154.308594 L 261.257812 154.125 L 258.851562 153.945312 L 244.167969 345.644531 C 244.023438 347.574219 243.074219 349.382812 241.613281 350.722656 C 240.160156 352.054688 238.234375 352.867188 236.222656 352.875 L 236.234375 355.289062 L 236.558594 352.898438 C 236.394531 352.875 236.273438 352.875 236.210938 352.875 L 236.160156 352.875 L 236.195312 354.6875 L 236.195312 352.875 L 236.160156 352.875 L 236.195312 354.6875 L 236.195312 352.875 C 234.25 352.871094 232.601562 352.144531 231.417969 350.984375 C 230.234375 349.820312 229.519531 348.238281 229.515625 346.410156 C 229.515625 346.289062 229.519531 346.167969 229.527344 346.042969 L 239.746094 154.363281 C 239.792969 153.476562 240.0625 152.625 240.554688 151.792969 C 241.289062 150.550781 242.550781 149.382812 244.183594 148.539062 C 245.8125 147.695312 247.800781 147.179688 249.917969 147.171875 L 249.992188 147.171875 L 250.0625 147.167969 L 249.945312 145.328125 L 249.957031 147.171875 L 250.0625 147.167969 L 249.945312 145.328125 L 249.957031 147.171875 L 249.949219 146.550781 L 249.949219 147.171875 L 249.957031 147.171875 L 249.949219 146.550781 L 249.949219 147.171875 L 249.976562 147.171875 C 252.679688 147.167969 254.992188 148.003906 256.535156 149.214844 C 257.308594 149.816406 257.894531 150.511719 258.277344 151.238281 C 258.664062 151.96875 258.863281 152.730469 258.863281 153.554688 C 258.863281 153.683594 258.859375 153.8125 258.851562 153.945312 L 261.257812 154.125 " fill-opacity="1" fill-rule="nonzero"/><path fill="#c4c3c3" d="M 217.621094 53.09375 L 232.304688 34.117188 C 234.425781 31.378906 238.359375 30.878906 241.097656 32.992188 L 285.664062 67.390625 C 288.40625 69.503906 288.910156 73.4375 286.789062 76.171875 L 272.105469 95.144531 L 282.136719 102.890625 L 300.230469 79.515625 C 305.128906 73.191406 303.957031 64.070312 297.625 59.183594 L 246.03125 19.363281 C 239.707031 14.476562 230.570312 15.644531 225.679688 21.96875 L 207.585938 45.347656 L 217.621094 53.09375 " fill-opacity="1" fill-rule="nonzero"/><path fill="#330e12" d="M 217.621094 53.09375 L 219.53125 54.566406 L 234.210938 35.589844 C 234.980469 34.605469 236.105469 34.101562 237.269531 34.097656 C 238.097656 34.097656 238.910156 34.351562 239.621094 34.898438 L 284.1875 69.300781 C 285.175781 70.0625 285.679688 71.1875 285.683594 72.347656 C 285.683594 73.171875 285.425781 73.988281 284.875 74.699219 L 268.71875 95.578125 L 282.570312 106.277344 L 302.144531 80.988281 C 304.519531 77.921875 305.671875 74.269531 305.671875 70.667969 C 305.675781 65.621094 303.414062 60.601562 299.105469 57.277344 L 247.511719 17.453125 C 244.441406 15.085938 240.785156 13.933594 237.179688 13.933594 C 232.121094 13.929688 227.097656 16.1875 223.769531 20.496094 L 204.195312 45.78125 L 218.054688 56.476562 L 219.53125 54.566406 L 217.621094 53.09375 L 219.09375 51.183594 L 210.972656 44.914062 L 227.589844 23.445312 C 229.972656 20.363281 233.546875 18.757812 237.179688 18.753906 C 239.765625 18.753906 242.355469 19.570312 244.558594 21.269531 L 296.148438 61.089844 C 299.226562 63.46875 300.839844 67.039062 300.84375 70.667969 C 300.839844 73.253906 300.023438 75.835938 298.324219 78.039062 L 281.707031 99.507812 L 275.492188 94.714844 L 288.699219 77.644531 C 289.917969 76.074219 290.515625 74.195312 290.511719 72.347656 C 290.515625 69.765625 289.351562 67.1875 287.140625 65.484375 L 242.574219 31.082031 C 241 29.863281 239.117188 29.269531 237.269531 29.273438 C 234.679688 29.269531 232.101562 30.4375 230.394531 32.644531 L 215.707031 51.617188 L 217.621094 53.09375 L 219.09375 51.183594 L 217.621094 53.09375 " fill-opacity="1" fill-rule="nonzero"/><path fill="#c4c3c3" d="M 321.71875 160.03125 C 321.875 159.847656 322.046875 159.671875 322.195312 159.472656 L 332.527344 146.125 C 336.992188 140.359375 335.929688 132.066406 330.148438 127.605469 L 171.535156 5.175781 C 165.761719 0.714844 157.457031 1.777344 152.988281 7.550781 L 142.660156 20.898438 C 142.503906 21.09375 142.378906 21.296875 142.242188 21.5 L 321.71875 160.03125 " fill-opacity="1" fill-rule="nonzero"/><g clip-path="url(#fb71307d85)"><path fill="#330e12" d="M 321.71875 160.03125 L 323.539062 161.613281 C 323.65625 161.476562 323.859375 161.265625 324.109375 160.945312 L 324.105469 160.953125 L 334.433594 147.601562 C 336.632812 144.765625 337.703125 141.390625 337.703125 138.058594 C 337.707031 133.398438 335.609375 128.769531 331.628906 125.699219 L 173.011719 3.269531 C 170.175781 1.074219 166.792969 0.00390625 163.460938 0.00390625 C 158.792969 0.00390625 154.15625 2.09375 151.082031 6.074219 L 140.8125 19.339844 L 140.753906 19.414062 C 140.503906 19.734375 140.351562 19.988281 140.242188 20.144531 L 138.964844 22.015625 L 322.046875 163.332031 L 323.539062 161.613281 L 321.71875 160.03125 L 323.191406 158.125 L 143.714844 19.589844 L 142.242188 21.5 L 144.234375 22.855469 C 144.40625 22.605469 144.503906 22.449219 144.566406 22.378906 L 154.902344 9.023438 C 157.035156 6.265625 160.21875 4.832031 163.460938 4.824219 C 165.773438 4.828125 168.085938 5.558594 170.058594 7.082031 L 328.675781 129.515625 C 331.433594 131.644531 332.871094 134.824219 332.875 138.058594 C 332.871094 140.367188 332.140625 142.679688 330.617188 144.652344 L 320.285156 158 L 320.28125 158.003906 C 320.226562 158.078125 320.097656 158.21875 319.890625 158.453125 L 321.71875 160.03125 L 323.191406 158.125 L 321.71875 160.03125 " fill-opacity="1" fill-rule="nonzero"/></g><g clip-path="url(#1dabbbf97b)"><path fill="#bdbcbd" d="M 322.046875 163.335938 L 313.480469 156.722656 L 322.046875 163.332031 L 323.539062 161.613281 C 323.589844 161.554688 323.65625 161.484375 323.730469 161.394531 C 323.710938 161.421875 323.6875 161.449219 323.660156 161.476562 L 322.046875 163.335938 M 323.914062 161.1875 C 323.972656 161.113281 324.039062 161.035156 324.109375 160.945312 L 324.105469 160.953125 L 330.605469 152.550781 L 324.105469 160.953125 C 324.042969 161.03125 323.976562 161.109375 323.914062 161.1875 M 335.019531 146.796875 C 336.824219 144.140625 337.703125 141.082031 337.703125 138.058594 C 337.703125 137.707031 337.691406 137.351562 337.664062 136.996094 C 337.90625 140.484375 336.980469 143.902344 335.019531 146.796875 M 337.410156 135.039062 C 336.703125 131.457031 334.742188 128.101562 331.628906 125.699219 L 291.507812 94.726562 L 331.628906 125.699219 C 334.652344 128.035156 336.683594 131.320312 337.410156 135.039062 M 296.34375 88.484375 L 302.144531 80.988281 C 303.882812 78.742188 304.964844 76.183594 305.421875 73.558594 C 304.96875 76.183594 303.886719 78.738281 302.144531 80.988281 L 296.34375 88.484375 M 282.929688 77.214844 L 284.878906 74.695312 C 284.898438 74.667969 284.917969 74.644531 284.941406 74.617188 C 284.917969 74.648438 284.898438 74.671875 284.875 74.699219 L 282.929688 77.214844 M 305.421875 73.554688 C 305.421875 73.550781 305.425781 73.546875 305.425781 73.546875 C 305.425781 73.546875 305.421875 73.550781 305.421875 73.554688 M 285.046875 70.21875 C 284.816406 69.875 284.53125 69.558594 284.191406 69.300781 L 278.140625 64.632812 C 278.140625 64.632812 278.140625 64.632812 278.140625 64.628906 L 284.1875 69.300781 C 284.535156 69.5625 284.820312 69.878906 285.046875 70.21875 M 299.804688 57.851562 C 299.800781 57.847656 299.796875 57.84375 299.792969 57.839844 C 299.796875 57.84375 299.800781 57.847656 299.804688 57.851562 M 299.785156 57.832031 C 299.777344 57.828125 299.773438 57.820312 299.769531 57.816406 C 299.773438 57.820312 299.777344 57.828125 299.785156 57.832031 M 299.769531 57.816406 C 299.550781 57.632812 299.332031 57.453125 299.105469 57.277344 L 255.90625 23.933594 L 299.105469 57.277344 C 299.332031 57.453125 299.550781 57.632812 299.769531 57.816406 " fill-opacity="1" fill-rule="nonzero"/></g><path fill="#949293" d="M 287.6875 91.78125 L 287.433594 91.585938 C 286.613281 88.613281 285.726562 85.65625 284.777344 82.714844 L 288.699219 77.644531 C 289.917969 76.074219 290.515625 74.195312 290.511719 72.347656 C 290.515625 69.765625 289.351562 67.1875 287.140625 65.484375 L 274.15625 55.460938 C 272.378906 51.574219 270.507812 47.707031 268.542969 43.871094 C 267.308594 41.445312 265.984375 39.066406 264.582031 36.730469 L 296.148438 61.089844 C 299.226562 63.46875 300.839844 67.039062 300.84375 70.667969 C 300.839844 73.253906 300.023438 75.835938 298.324219 78.039062 L 287.6875 91.78125 " fill-opacity="1" fill-rule="nonzero"/><path fill="#290b0d" d="M 291.507812 94.726562 L 287.6875 91.78125 L 298.324219 78.039062 C 300.023438 75.835938 300.839844 73.253906 300.84375 70.667969 C 300.839844 67.039062 299.226562 63.46875 296.148438 61.089844 L 264.582031 36.730469 C 262.203125 32.742188 259.597656 28.890625 256.824219 25.171875 C 256.515625 24.761719 256.210938 24.34375 255.90625 23.933594 L 299.105469 57.277344 C 299.332031 57.453125 299.550781 57.632812 299.769531 57.816406 C 299.773438 57.820312 299.777344 57.828125 299.785156 57.832031 C 299.789062 57.835938 299.789062 57.835938 299.792969 57.839844 C 299.796875 57.84375 299.800781 57.847656 299.804688 57.851562 C 304.429688 61.828125 306.40625 67.855469 305.425781 73.546875 C 305.425781 73.546875 305.421875 73.550781 305.421875 73.554688 C 305.421875 73.558594 305.421875 73.558594 305.421875 73.558594 C 304.964844 76.183594 303.882812 78.742188 302.144531 80.988281 L 296.34375 88.484375 L 291.507812 94.726562 M 284.777344 82.714844 C 284.1875 80.875 283.570312 79.039062 282.929688 77.214844 L 284.875 74.699219 C 284.898438 74.671875 284.917969 74.648438 284.941406 74.617188 C 285.53125 73.816406 285.78125 72.84375 285.652344 71.855469 C 285.578125 71.261719 285.371094 70.710938 285.050781 70.222656 C 285.050781 70.222656 285.046875 70.21875 285.046875 70.21875 C 284.820312 69.878906 284.535156 69.5625 284.1875 69.300781 L 278.140625 64.628906 C 276.871094 61.558594 275.542969 58.5 274.15625 55.460938 L 287.140625 65.484375 C 289.351562 67.1875 290.515625 69.765625 290.511719 72.347656 C 290.515625 74.195312 289.917969 76.074219 288.699219 77.644531 L 284.777344 82.714844 " fill-opacity="1" fill-rule="nonzero"/><path fill="#949293" d="M 321.3125 156.671875 L 294.621094 136.070312 C 294.046875 123.476562 292.246094 111.195312 289.394531 99.191406 L 328.675781 129.515625 C 331.433594 131.644531 332.871094 134.824219 332.875 138.058594 C 332.871094 140.367188 332.140625 142.679688 330.617188 144.652344 L 321.3125 156.671875 " fill-opacity="1" fill-rule="nonzero"/><g clip-path="url(#764ba5ba5b)"><path fill="#290b0d" d="M 322.046875 163.332031 L 313.480469 156.722656 L 294.800781 142.300781 C 294.800781 142.109375 294.800781 141.917969 294.796875 141.726562 C 294.765625 139.832031 294.707031 137.949219 294.621094 136.070312 L 321.3125 156.671875 L 330.617188 144.652344 C 332.140625 142.679688 332.871094 140.367188 332.875 138.058594 C 332.871094 134.824219 331.433594 131.644531 328.675781 129.515625 L 289.394531 99.191406 C 288.785156 96.640625 288.132812 94.109375 287.433594 91.585938 L 287.6875 91.78125 L 291.507812 94.726562 L 331.628906 125.699219 C 334.742188 128.101562 336.703125 131.457031 337.410156 135.039062 C 337.476562 135.375 337.53125 135.71875 337.574219 136.066406 C 337.617188 136.378906 337.644531 136.6875 337.664062 136.996094 C 337.691406 137.351562 337.703125 137.707031 337.703125 138.058594 C 337.703125 141.082031 336.824219 144.140625 335.019531 146.796875 C 334.835938 147.070312 334.640625 147.339844 334.433594 147.597656 L 330.605469 152.550781 L 324.105469 160.953125 L 324.109375 160.945312 C 324.039062 161.035156 323.972656 161.113281 323.914062 161.1875 C 323.851562 161.257812 323.792969 161.328125 323.730469 161.394531 C 323.65625 161.484375 323.589844 161.554688 323.539062 161.613281 L 322.046875 163.332031 M 321.71875 160.03125 L 323.191406 158.125 L 321.71875 160.03125 " fill-opacity="1" fill-rule="nonzero"/></g><path fill="#bdbcbd" d="M 106.058594 374.992188 C 105.703125 374.992188 105.351562 374.976562 105.003906 374.949219 C 105.351562 374.976562 105.703125 374.992188 106.058594 374.992188 L 106.085938 374.992188 L 251.792969 374.347656 C 252.167969 374.347656 252.535156 374.328125 252.902344 374.296875 C 252.535156 374.328125 252.167969 374.347656 251.792969 374.347656 L 106.058594 374.992188 M 92.40625 363.292969 C 92.375 363.070312 92.34375 362.847656 92.316406 362.621094 C 92.34375 362.847656 92.375 363.070312 92.40625 363.292969 M 265.324219 362.949219 C 265.390625 362.589844 265.441406 362.222656 265.476562 361.855469 L 279.128906 222.828125 C 279.128906 222.824219 279.128906 222.824219 279.128906 222.824219 L 265.476562 361.855469 C 265.445312 362.222656 265.390625 362.589844 265.324219 362.949219 " fill-opacity="1" fill-rule="nonzero"/><path fill="#949293" d="M 106.105469 370.171875 L 106.050781 370.171875 C 106.050781 370.171875 106.046875 370.171875 106.046875 370.171875 C 103.875 370.171875 101.753906 369.28125 100.109375 367.800781 C 98.460938 366.320312 97.347656 364.285156 97.121094 362.105469 L 96.683594 357.996094 C 102.109375 357.054688 107.503906 356 112.835938 354.847656 C 115.121094 356.902344 118.148438 358.191406 121.417969 358.203125 L 121.515625 358.203125 C 124.691406 358.191406 127.578125 356.953125 129.644531 354.910156 C 131.109375 353.476562 132.167969 351.628906 132.664062 349.574219 C 137.574219 348.023438 142.449219 346.316406 147.269531 344.480469 L 147.347656 346.347656 C 147.472656 349.605469 148.9375 352.542969 151.164062 354.636719 C 153.375 356.71875 156.371094 358.019531 159.636719 358.035156 L 159.757812 358.035156 C 163.023438 358.023438 166.003906 356.714844 168.152344 354.601562 C 170.300781 352.496094 171.632812 349.550781 171.632812 346.316406 L 171.628906 346.140625 L 171.628906 346.128906 L 171.441406 334.078125 C 174.402344 332.664062 177.339844 331.214844 180.242188 329.734375 C 182.238281 328.726562 184.210938 327.667969 186.160156 326.570312 L 186.019531 346.070312 L 186.019531 346.058594 L 186.019531 346.152344 C 186.019531 349.394531 187.367188 352.347656 189.523438 354.457031 C 191.660156 356.550781 194.621094 357.847656 197.863281 357.863281 L 198.003906 357.863281 C 201.304688 357.851562 204.328125 356.527344 206.542969 354.410156 C 208.761719 352.296875 210.210938 349.34375 210.308594 346.074219 L 211.417969 309.511719 C 216.851562 305.441406 222.207031 301.226562 227.316406 296.753906 L 224.703125 345.785156 C 224.691406 345.992188 224.6875 346.199219 224.6875 346.410156 C 224.683594 349.539062 225.949219 352.394531 228.03125 354.429688 C 230.082031 356.441406 232.925781 357.664062 236.058594 357.695312 L 236.078125 357.699219 L 236.242188 357.699219 C 239.546875 357.679688 242.59375 356.371094 244.878906 354.277344 C 247.164062 352.1875 248.730469 349.277344 248.984375 346.011719 L 255.113281 265.972656 C 257.992188 262.078125 260.765625 258.121094 263.457031 254.152344 C 267.085938 248.792969 270.117188 243.121094 272.851562 237.300781 L 260.671875 361.382812 C 260.460938 363.574219 259.359375 365.617188 257.722656 367.117188 C 256.082031 368.617188 253.953125 369.523438 251.769531 369.527344 L 106.105469 370.171875 " fill-opacity="1" fill-rule="nonzero"/><path fill="#290b0d" d="M 106.058594 374.992188 C 105.703125 374.992188 105.351562 374.976562 105.003906 374.949219 C 98.816406 374.4375 93.402344 369.457031 92.40625 363.292969 C 92.375 363.070312 92.34375 362.847656 92.316406 362.621094 L 91.910156 358.796875 C 93.5 358.542969 95.09375 358.277344 96.683594 357.996094 L 97.121094 362.105469 C 97.347656 364.285156 98.460938 366.320312 100.109375 367.800781 C 101.753906 369.28125 103.875 370.171875 106.046875 370.171875 C 106.046875 370.171875 106.050781 370.171875 106.050781 370.171875 L 106.105469 370.171875 L 251.769531 369.527344 C 253.953125 369.523438 256.082031 368.617188 257.722656 367.117188 C 259.359375 365.617188 260.460938 363.574219 260.671875 361.382812 L 272.851562 237.300781 C 275.085938 232.546875 277.125 227.695312 279.128906 222.828125 L 265.476562 361.855469 C 265.441406 362.222656 265.390625 362.589844 265.324219 362.949219 C 264.210938 368.9375 258.949219 373.742188 252.902344 374.296875 C 252.535156 374.328125 252.167969 374.347656 251.792969 374.347656 L 106.085938 374.992188 L 106.058594 374.992188 " fill-opacity="1" fill-rule="nonzero"/><path fill="#acabab" d="M 121.507812 353.382812 L 121.449219 353.382812 C 120.90625 353.382812 120.371094 353.320312 119.847656 353.210938 C 121.980469 352.671875 124.109375 352.101562 126.234375 351.496094 C 125.054688 352.644531 123.425781 353.367188 121.507812 353.382812 " fill-opacity="1" fill-rule="nonzero"/><path fill="#290b0d" d="M 121.429688 358.203125 L 121.417969 358.203125 C 118.148438 358.191406 115.121094 356.902344 112.835938 354.847656 C 112.9375 354.828125 113.035156 354.804688 113.136719 354.78125 C 115.378906 354.296875 117.617188 353.773438 119.847656 353.210938 C 120.371094 353.320312 120.90625 353.382812 121.449219 353.382812 L 121.507812 353.382812 C 123.425781 353.367188 125.054688 352.644531 126.234375 351.496094 C 128.378906 350.886719 130.527344 350.246094 132.664062 349.574219 C 132.167969 351.628906 131.109375 353.476562 129.644531 354.910156 C 127.578125 356.953125 124.691406 358.191406 121.515625 358.203125 L 121.429688 358.203125 " fill-opacity="1" fill-rule="nonzero"/><path fill="#acabab" d="M 159.78125 353.210938 C 159.753906 353.210938 159.734375 353.210938 159.714844 353.210938 C 159.710938 353.210938 159.710938 353.210938 159.707031 353.210938 L 159.675781 353.210938 C 157.679688 353.203125 155.84375 352.414062 154.476562 351.128906 C 153.105469 349.832031 152.246094 348.082031 152.171875 346.160156 L 152.03125 342.617188 C 156.960938 340.640625 161.835938 338.53125 166.648438 336.320312 L 166.800781 346.207031 L 166.804688 346.316406 C 166.800781 348.214844 166.035156 349.910156 164.761719 351.167969 C 163.496094 352.414062 161.753906 353.191406 159.78125 353.210938 " fill-opacity="1" fill-rule="nonzero"/><path fill="#290b0d" d="M 159.640625 358.035156 L 159.636719 358.035156 C 156.371094 358.019531 153.375 356.71875 151.164062 354.636719 C 148.9375 352.542969 147.472656 349.605469 147.347656 346.347656 L 147.269531 344.480469 C 148.863281 343.871094 150.449219 343.253906 152.03125 342.617188 L 152.171875 346.160156 C 152.246094 348.082031 153.105469 349.832031 154.476562 351.128906 C 155.84375 352.414062 157.679688 353.203125 159.675781 353.210938 L 159.707031 353.210938 C 159.710938 353.210938 159.710938 353.210938 159.714844 353.210938 C 159.734375 353.210938 159.753906 353.210938 159.78125 353.210938 C 161.753906 353.191406 163.496094 352.414062 164.761719 351.167969 C 166.035156 349.910156 166.800781 348.214844 166.804688 346.316406 L 166.800781 346.203125 L 166.648438 336.320312 C 168.253906 335.582031 169.851562 334.835938 171.441406 334.078125 L 171.628906 346.128906 L 171.628906 346.140625 L 171.632812 346.316406 C 171.632812 349.550781 170.300781 352.496094 168.152344 354.601562 C 166.003906 356.714844 163.023438 358.023438 159.757812 358.035156 L 159.640625 358.035156 " fill-opacity="1" fill-rule="nonzero"/><path fill="#acabab" d="M 198.042969 353.042969 C 198.011719 353.042969 197.984375 353.042969 197.957031 353.042969 C 197.953125 353.042969 197.949219 353.042969 197.945312 353.042969 C 195.949219 353.042969 194.1875 352.261719 192.90625 351.011719 C 191.625 349.753906 190.851562 348.058594 190.847656 346.152344 L 190.847656 346.101562 L 191.007812 323.726562 C 194.609375 321.53125 198.128906 319.195312 201.554688 316.726562 C 203.195312 315.546875 204.835938 314.359375 206.476562 313.164062 L 205.484375 345.925781 C 205.421875 347.851562 204.574219 349.617188 203.207031 350.925781 C 201.855469 352.21875 200.03125 353.019531 198.042969 353.042969 " fill-opacity="1" fill-rule="nonzero"/><path fill="#290b0d" d="M 197.886719 357.863281 L 197.863281 357.863281 C 194.621094 357.847656 191.660156 356.550781 189.523438 354.457031 C 187.367188 352.347656 186.019531 349.394531 186.019531 346.152344 L 186.019531 346.058594 L 186.019531 346.070312 L 186.160156 326.570312 C 187.792969 325.652344 189.40625 324.703125 191.007812 323.726562 L 190.847656 346.101562 L 190.847656 346.152344 C 190.851562 348.058594 191.625 349.753906 192.90625 351.011719 C 194.1875 352.261719 195.949219 353.042969 197.945312 353.042969 C 197.949219 353.042969 197.953125 353.042969 197.957031 353.042969 C 197.984375 353.042969 198.011719 353.042969 198.042969 353.042969 C 200.03125 353.019531 201.855469 352.21875 203.207031 350.925781 C 204.574219 349.617188 205.421875 347.851562 205.484375 345.925781 L 206.476562 313.164062 C 208.128906 311.957031 209.777344 310.738281 211.417969 309.511719 L 210.308594 346.074219 C 210.210938 349.34375 208.761719 352.296875 206.542969 354.410156 C 204.328125 356.527344 201.304688 357.851562 198.003906 357.863281 L 197.886719 357.863281 " fill-opacity="1" fill-rule="nonzero"/><path fill="#acabab" d="M 236.28125 352.875 C 236.253906 352.875 236.230469 352.875 236.210938 352.875 L 236.167969 352.875 C 234.238281 352.867188 232.597656 352.136719 231.417969 350.984375 C 230.234375 349.820312 229.519531 348.238281 229.515625 346.410156 C 229.515625 346.289062 229.519531 346.167969 229.527344 346.042969 L 232.398438 292.136719 C 233.597656 290.996094 234.777344 289.847656 235.941406 288.675781 C 240.816406 283.757812 245.394531 278.480469 249.730469 273.011719 L 244.167969 345.644531 C 244.023438 347.574219 243.074219 349.382812 241.613281 350.722656 C 240.171875 352.039062 238.269531 352.855469 236.28125 352.875 " fill-opacity="1" fill-rule="nonzero"/><path fill="#290b0d" d="M 236.078125 357.699219 L 236.058594 357.695312 C 232.925781 357.664062 230.082031 356.441406 228.03125 354.429688 C 225.949219 352.394531 224.683594 349.539062 224.6875 346.410156 C 224.6875 346.199219 224.691406 345.992188 224.703125 345.785156 L 227.316406 296.753906 C 229.039062 295.242188 230.738281 293.707031 232.398438 292.136719 L 229.527344 346.042969 C 229.519531 346.167969 229.515625 346.289062 229.515625 346.410156 C 229.519531 348.238281 230.234375 349.820312 231.417969 350.984375 C 232.597656 352.136719 234.238281 352.867188 236.167969 352.875 L 236.210938 352.875 C 236.230469 352.875 236.253906 352.875 236.28125 352.875 C 238.269531 352.855469 240.171875 352.039062 241.613281 350.722656 C 243.074219 349.382812 244.023438 347.574219 244.167969 345.644531 L 249.730469 273.011719 C 251.566406 270.699219 253.359375 268.347656 255.113281 265.972656 L 248.984375 346.011719 C 248.730469 349.277344 247.164062 352.1875 244.878906 354.277344 C 242.59375 356.371094 239.546875 357.679688 236.242188 357.699219 L 236.078125 357.699219 " fill-opacity="1" fill-rule="nonzero"/><g fill="#000000" fill-opacity="1"><g transform="translate(111.251649, 98.054569)"><g><path d="M 0.390625 1.9375 L 4.0625 -12.15625 L 4.21875 -12.15625 L 0.546875 1.9375 Z M 0.390625 1.9375 "/></g></g></g><g fill="#000000" fill-opacity="1"><g transform="translate(185.499984, 193.124987)"><g><path d="M 2 0.109375 C 1.425781 0.109375 1.140625 -0.25 1.140625 -0.96875 C 1.140625 -1.695312 1.425781 -2.0625 2 -2.0625 C 2.570312 -2.0625 2.859375 -1.695312 2.859375 -0.96875 C 2.859375 -0.25 2.570312 0.109375 2 0.109375 Z M 2 0.109375 "/></g></g></g></svg>